<mxfile host="app.diagrams.net" agent="Mozilla/5.0 (Windows NT 10.0; Win64; x64) AppleWebKit/537.36 (KHTML, like Gecko) Chrome/134.0.0.0 Safari/537.36 Edg/134.0.0.0" version="26.1.1">
  <diagram name="Page-1" id="TgSD1Bebdn18lurT_BCs">
    <mxGraphModel dx="2541" dy="918" grid="0" gridSize="10" guides="1" tooltips="1" connect="1" arrows="1" fold="1" page="1" pageScale="1" pageWidth="850" pageHeight="1100" math="0" shadow="0">
      <root>
        <mxCell id="0" />
        <mxCell id="1" parent="0" />
        <mxCell id="mCVYUDn0fca01j3yYNZI-8" style="edgeStyle=orthogonalEdgeStyle;rounded=0;orthogonalLoop=1;jettySize=auto;html=1;entryX=0;entryY=0.5;entryDx=0;entryDy=0;" edge="1" parent="1" source="mCVYUDn0fca01j3yYNZI-2" target="mCVYUDn0fca01j3yYNZI-5">
          <mxGeometry relative="1" as="geometry">
            <mxPoint x="-456.75" y="230" as="targetPoint" />
          </mxGeometry>
        </mxCell>
        <mxCell id="mCVYUDn0fca01j3yYNZI-2" value="Engine" style="whiteSpace=wrap;html=1;aspect=fixed;" vertex="1" parent="1">
          <mxGeometry x="-628" y="186" width="80" height="80" as="geometry" />
        </mxCell>
        <mxCell id="mCVYUDn0fca01j3yYNZI-4" value="" style="edgeStyle=orthogonalEdgeStyle;rounded=0;orthogonalLoop=1;jettySize=auto;html=1;" edge="1" parent="1" source="mCVYUDn0fca01j3yYNZI-3" target="mCVYUDn0fca01j3yYNZI-2">
          <mxGeometry relative="1" as="geometry" />
        </mxCell>
        <mxCell id="mCVYUDn0fca01j3yYNZI-3" value="Nodejs Transformer/Action&lt;div&gt;&lt;b&gt;JSON.stringify(this);&lt;/b&gt;&lt;/div&gt;" style="shape=process;whiteSpace=wrap;html=1;backgroundOutline=1;" vertex="1" parent="1">
          <mxGeometry x="-708.5" y="310" width="241" height="60" as="geometry" />
        </mxCell>
        <mxCell id="mCVYUDn0fca01j3yYNZI-5" value="" style="shape=document;whiteSpace=wrap;html=1;boundedLbl=1;" vertex="1" parent="1">
          <mxGeometry x="-361" y="186" width="120" height="80" as="geometry" />
        </mxCell>
        <mxCell id="mCVYUDn0fca01j3yYNZI-6" value="" style="shape=document;whiteSpace=wrap;html=1;boundedLbl=1;" vertex="1" parent="1">
          <mxGeometry x="-351" y="196" width="120" height="80" as="geometry" />
        </mxCell>
        <mxCell id="mCVYUDn0fca01j3yYNZI-7" value="S3/Blob" style="shape=document;whiteSpace=wrap;html=1;boundedLbl=1;" vertex="1" parent="1">
          <mxGeometry x="-341" y="206" width="120" height="80" as="geometry" />
        </mxCell>
        <mxCell id="mCVYUDn0fca01j3yYNZI-15" style="edgeStyle=orthogonalEdgeStyle;rounded=0;orthogonalLoop=1;jettySize=auto;html=1;strokeColor=#FF0000;" edge="1" parent="1" source="mCVYUDn0fca01j3yYNZI-10" target="mCVYUDn0fca01j3yYNZI-13">
          <mxGeometry relative="1" as="geometry" />
        </mxCell>
        <mxCell id="mCVYUDn0fca01j3yYNZI-10" value="Env config/ Storage keys/secrets" style="shape=internalStorage;whiteSpace=wrap;html=1;backgroundOutline=1;" vertex="1" parent="1">
          <mxGeometry x="-509" y="59" width="161" height="84" as="geometry" />
        </mxCell>
        <mxCell id="mCVYUDn0fca01j3yYNZI-11" style="edgeStyle=orthogonalEdgeStyle;rounded=0;orthogonalLoop=1;jettySize=auto;html=1;exitX=1;exitY=0.5;exitDx=0;exitDy=0;entryX=0.571;entryY=0.969;entryDx=0;entryDy=0;entryPerimeter=0;strokeColor=#FF0000;" edge="1" parent="1" source="mCVYUDn0fca01j3yYNZI-3" target="mCVYUDn0fca01j3yYNZI-10">
          <mxGeometry relative="1" as="geometry" />
        </mxCell>
        <mxCell id="mCVYUDn0fca01j3yYNZI-16" style="edgeStyle=orthogonalEdgeStyle;rounded=0;orthogonalLoop=1;jettySize=auto;html=1;entryX=0.5;entryY=1;entryDx=0;entryDy=0;exitX=1;exitY=0.5;exitDx=0;exitDy=0;strokeColor=#FF0000;" edge="1" parent="1" source="mCVYUDn0fca01j3yYNZI-13" target="mCVYUDn0fca01j3yYNZI-14">
          <mxGeometry relative="1" as="geometry" />
        </mxCell>
        <mxCell id="mCVYUDn0fca01j3yYNZI-13" value="" style="shape=image;verticalLabelPosition=bottom;labelBackgroundColor=default;verticalAlign=top;aspect=fixed;imageAspect=0;image=data:image/png,iVBORw0KGgoAAAANSUhEUgAAAwkAAAG9CAYAAABeXzrGAAAAAXNSR0IArs4c6QAAAARnQU1BAACxjwv8YQUAAAAJcEhZcwAAJOgAACToAYJjBRwAAIZVSURBVHhe7b1NyBxLdud96t25veymTS+uraGrZCPUjd3LrJnFC7cZqrTRSoZpsMxgsrx7ihlfevFeMAbN4iLPULXz82CMZfBAa6WNshh8YRYzVUvbuIVwK6sZ2Xdh3LiX017WG5GVHyciIyMiM6M+n/8PQsqqJysyzokTHyciMmKwE5CBf/iHf6Bf+7Vfyz8BAAAAAAAArgVXX///yf8HAAAAAAAAgAw4CQAAAAAAAAAFOAkAAAAAAAAABTgJAAAAAAAAAAU4CQAAAAAAAAAFOAkAAAAAAAAAhcHHjx+NW6A+ePAgvwIAAAAAAABcG8IPyK/qNJ6TMBgM6NP/9L/zTwAAAAAAAIBr4cv/9m+pwQ3IwHIjAAAAAAAAgAKcBAAAAAAAAIACnAQAAAAAAACAApwEAAAAAAAAgAKcBAAAAAAAAIACnAQAAAAAAACAApwEAAAAAAAAgAKcBAAAAAAAAIACnAQAAAAAAACAApwEAAAAAAAAgAKcBAAAAAAAAIACnAQAAAAAAACAApwEAAAAwfn2975Bn4rw7W/lXwAAALgoBjtBfq0wGAzo0//0v/NPAABwzfyy6NR+nX7n+1+nT775Nfok/5boF/TVz/6VNn/3L/Q/V/9CP82/BXa+Pfkt+pNPv5Z/+jl98Z//nr7MPwEAADgPvvxv/5Ya3IAMzCQAAO413578Bv3Zf/1N+pMffEKR4iBIxOdvfp1++9Nfpz/5r2P6s9/9Bn07/wto5t/8SuEgSH6JHmA2AQAALg44CQCAe8ov0+/9cEx/8unXVcfgZ7+gzY9/vg/i+qv8a8kn3/l1+v8mv5x/ugzkqP5fCQdHhj/63nHS/uXf/bzS289+Tv/zn/JrAAAAFwOWGwEA7iWf/u6Yfvid/IPgqx//hP7Ln5uXFH37W9+g3/mdX6fom+KDuO/74r5LgS/9+erLv6X/uPq/2TUAAID7DZYbAQCAhuw4cwdh85ei89zgIEh++k//Qn/4xZp+/y+/oh/93eU4CAAAAEBX4CQAAO4Z36DfKV+qFfz4J/SHf+03uv7Tv/5H+tO/zj8AAAAAVwyWGwEA7hff+w36qx98Pf/wC/rRH/8N/WmwNfPVLknyJeiKfJekv/pKOBkOh+Rbv0p/9gefZO9JVMuDfpk+nXxC/+G7cvel7C6BiPPHX5mXSCky2miQ/1vfoN/7zW9Q9N1fynZ7qpDP/Dn99//xj/SlTWdMBuPyrBAyGjHFIZDvmfzdV/QXth2qTGkSevijYpmZ5Gc/py/+4u/tsgMAwIWA5UYAAMD4VHQgS0QHNJSD8G3RMee7JKnkuyT94Dfpr374G/R7bXb7kZ1XEe8P5QvWvOMr4/yO3HXpt9rFZ0V0in84pr/6g1+n386eZ5DjO5/QD/9gTH/m+wL3r3zNvSNUABkL/dfjEAg5omyHqt+iP/pe/p0L6WgJPZQOgkTk4b/DTk0AgHsCnAQAwD3iG/Tv+MvK//yv+VVPRIfyT34gOqf5R8lXP8t3SBLhq5/lX0qks/AHnh377z4UHdV8RF5QxsnjEx3p3/6dX1U74n/9FX3xlz/Jwo9+/Iv8S/F74RQV3+/DB8VJ+vZEOjj5h3wU/0fFvV+qz/3k09/073Db6CojR9O/jONHX5rSLZyFH8hdnvKPTcg0sdmmYqerTCeYRQAA3BOw3AgAcH/gy2BEhy/IUiMlTsGPf0K/b1oeo9/3s6/o97/4R/d9EnHvF3+hLvGRI+eyY1yw+cs1/aHhfYk2uxtl9373X+lHlmVRPL7GnZ64DCY5Q8qoxNWcp0q6fdPUlJcAAHAFYLkRAAAckE//PetYys5nU6fyn/6R/uMff1WdH/DNT+h3fEbiZUdVdGj1dfA//eu/py9+nH8QfPIr/c9A+Onqb+j7X/y99b2Jn66+ok1+Td/5Bn2aX/aih4xc/5u/bHb6pGxlXD66t+UlAADcA+AkAABAZ/jypV/Qj/7CMDPAEY7Cf2/TsXd0VOWhZQWf/Mov5VcXRi8Zuf5/Tv/LsfPU//nnaumVXfc/py9MszwAAHCPgJMAAABd+dbX2PKUf6WPDaPYHKWj+t2vu1/qtfFPv6hmJnxeEG7NL9O3v/XL9On3vsECl/kI2GTk+v8Z0QMlnfXwb/JbJVan6me/oP+TXwIAwH0FTgIAAHRF6aT6dSx/Gupl6YMht3H9DfozucuR3K3pD36TfviDX2dBW7d/Srj+s92jeDoNgZ+PAQAAwAqcBADA/YGPSsvtNbGdpcYv0+/9UG7jathG9MoItrMVAABcKXASAAD3iH9VtiONvvuN/ApIPv3d36TfZlugbr78Cf3+H6/p+/+Zh59ULy6fE/LdBiWd9mDb5QkAAACcBADAveL/0sd/zi8loXbnkXzza8qa9ya+zdfC//Mvzufl2G/9Kv0H/hL2H/8N/aE8odjjPYuTwWeGPPUPAADADzgJAIB7xZf/g21DSl+n/+B7crCJv/4XNqr+S/TAY/nSv/mVal38WS15Ud6v+Dn9z3N2DgqU5WN++gcAAOAHnAQAwP1C34b004feJwd/+3u/Sr/3Pe5U8OVLX6Pf/veO5Uvf+w36IRut3/ztBS55UXZ0OjX/Qv+rzEsP/QMAAPAGTgIA4N7x5Z/zdfVfo+gHv0V/NPlG8xai3/oG/d7v/hb9yQ8+od/+Lt868//Sn/5VtY8/fefX6c9+1xyPdDD+jJ0eTD/+qv9pzx7w3ZSsW64qS3e+Tv+vYVQ+2/VIP5X4xPBzFDL9O2eG5JauPWaPAADgnjDYNZzHPBgM6NP/9L/zTwAAcGV8S3TaDR3er372c/qqfG/hl+iT72gj5z/+CX3/z/8l/7Dn098dsxmCPTyeT77zdTUO+ZJt02FdPF22+yQ+9+py/uwXtJGOw6/8EkXfpOzdg72zst/ZiL+4/NWPf07//e9+kZ1P8O+++0l2v8rP6Yv//Pf0Zf6pxJWuwDJ+Khy4H4p8qhAyirT/L5n2DJl+kQdlXhrS3SZNAABwBXz53/4tNbgBGZhJAADcT/7pH+k//vFPaMN2O5J88s2vUyQ69fugOghfCQdBng6s8+Wfr+mLH1eHpEl4PLU4jtkBFXL+ly9Z2r75tX26xP8q/5f+9AuuDyH7dz7JzxeoHASZ/i94fGfAl3/+N/T7SpqkjHnasyDSz/MSh6UBAIATOAkAgPvLP/0L/eEXa/q+cBZ+9OOfK9uj7vlFNiPwI7kVqNw2UzgITZ172VH9/h//rehAG+IRndKvfvwVffHH9jhqtNn9iJ3krPPTlehE/6Wern2a1BeUpT5MMuz18IWQT6a/VQfbJUNAGSv91++T322EvD/6y7+l77uctDZpAgCAKwXLjQAAAAAAALhnYLkRAAAAAAAAoBVwEgAAAAAAAAAKcBIAAAAAAAAACnASAAAAAAAAAApwEgAAAAAAAAAKcBIAAAAAAAAACnASAAAAAAAAAApwEgAAAAAAAAAKcBIAAAAAAAAACoOPHz8aj1p78OBBfgUAAAAAAAC4NoQfkF/VGewazmMeDAbWo5oBAAAAAAAAl4mrr4/lRgAAAAAAAAAFOAkAAAAAAAAABTgJAAAAAAAAAAU4CQAAAAAAAAAFOAkAAAAAAAAABTgJAAAAAAAAAAU4CQAAAAAAAAAFOAkAAAAAAAAABTgJAAAAAAAAAAU4CQAAAAAAAAAFOAkAAAAAAAAABTgJAADQldWSxoMBDUQYL1f5lwAAAMDlAycBgAthu1rRSoTtNv8CnAHvaZNfbd7nF+DsQNk5b5A/AJwncBIAuAC2yzGNplOaijAazQhj1tfOllbLGY3H42yWogzi83i2pJVvZ0r0uozxDEQ84xktvSO6XFB2zhvkDwDnC5wEAC6A9H0xXi15Rx8w4na1bFeiUz8Y0XR+R5sNz3eB+Ly5m9N0JJc32YxgS8uZcAxGDfGQiGdzR/PpSDgeS3H39YKyc94gfwA4X+AkAHABTJ7GFOXXFD2jJ8P8GlwXwkEYTUWnPv8oieKYYhmi0gIyNvNRo6OwXT6n+R2LRfw2i8MQj4iIRrPrHb9F2fFHjuoXs02zI80yIX8AOF8GO0F+rSAriYY/AQAAkIhO/UB06jPihHa3k/11J1Y0G0wpj004Bwm9EvGpfaYtLccjmpf9/5iS3S3pT82WcLwWf/38FX02GWpxCLYrWj6fsngiWqRrukEH7V6T2U1uFNEipTUMAoCrxtXXx0wCAACcAdvli9JBED00g4MgGdLNOhGuQcEdvTDMJgxv1rRbr+nW5CBIhhO6ebWoRnBpQ+/T/BIAAAAQwEkAAICTs6W3r6vlQfHnN+bOfcaEPluw7v3rt93eKRg+oWds5dE7LAYHAADAgJMALhy5RKPYscWxM4ZcGlLc61iDzdfmKuu+t3xf/OL7fAeZ/PssjMfZmt5at2sr0qvsNOO5Ww17rivtMj3b1VJ7Tv6sQ+xow9JWJU2mQe6qoz3fJatJv5nOWDxChuY4wsq+zfOL5+1hdPiWKh8hpqeOVUvDJ8+qWYDNe+o2CZASf2f08cOAS0vkcqamXZVa2ntIm3KXnRZIGWfSrlqmpySArZrKi4h3v6OVFqeQ3RgjqxeLpUYS+c5L9ft9HIZJq70eAuW1MX9CyGjEFIcIQo7Z0hGPKU2t6ikALgT5ToIJy58AOCPS3SKizF5liJP8awPpIirvEx2xXfOtljjTxU50zrLvo0WqfDaGaCFiy364S2L+fD1E1rQrzynjrJMmsT09RYjinUx+EFjaMhnSZBcz/dWDlLXh4bp+hTz135vzOazsrvwS6ROJkM8sv7NmoIPW8QgdF/cLfXbKS0W3tvLQBlfeVyHL3yYOZFO2stMGtS4xB2kfTQSzVb28cFmNwWArih3Ygv7b8HltzJ8QMmr46d9SJ+tpatBhnyoBgGMg7dQGnARw8SgNdnOtrnT8ZWiuwHkHTOs88cYhUjsKURzvYhH0xidaJOqzxe/kfbH2e2tHzdWQSgwNVSQ6GdmzZLpqDXrHzqUOS1u80Brw4vk1WRue3ahfrjO/jk4f2ZO4fn8Zl/I9Cz16BH42zPF3jk2kiZpP1k5cC9TOcyTKxGK3SJJdIsNC5l/1TBmai+thbCqEk1B3EKScRZr49w3yhbTVxvLC4tTjq+lAOMR5Hi2YYyzzrvh+H7RfHSCvnU5CZxkZmv5lHAtRR7dKd2OaHPUUAGeGtFsbcBLA5cMbmaaOtnLPPjR2jHgjorcQhniMjW6tk7kPtdFOLb7GNPH7HA1pFkS6jTHp99kaU18adFIb2JWjwdo9TjlkaJKlILTs2n2mPDGORBp7E35we/HrsHs6CULnvKO3EJ0gtRMqOjUBezJZx1F2uppG9QVeDtGhbKopz33xsA2ZpiJvauLpcgW21eLeWjWjdYyb1V7ljcsOD5LXrvxj93WSUYmruROvpNs3TU15CcAZI23XBpwEcAXwDlNDxa81IFloaHh5h63W0OiNQ1PDUGtERGfMo2Hu2pAqTkmDXCVa2poe6Y2vTiTKvYa80uNyySIILbsSn005Brm70t5J8PlNffasCvuRX0v/7oBYZuoKDmVTHvZkw9s2BOlC6De/Lghtq2305GNjbZwEP1rmtUknAWXkf3dkn/1ePU097QqAUyHt1wZeXAZXwJCelNu0bOj12/rbYqs3xeaS8jCp/HLzmuq3rqi81fUCabSg1LhNpUDbOSZO5HaU+QcN5SXUdx9avHhXwNMc0eKVbWccwfCGPhctd0HQXW1sOpEoejHnVUVMydohS3DZeXwiBTYDEHGtRU/ifBnSw8f5ZQ12cvPY90XbExHUpvqg2dpn9rfLhzc32vkVBy6nDj3JQ8sKNpe6320vGbn+3ZsDjB5VFbhd9z71FACXCZwEcBXwjnZ9S0jWOMRP6TObQ7H9QO/yS3mvox2xYOugBYanmR6TzyY1vAGs6Wu7otXKFhydFSuqXqydlegRjfLLRoLLzuNzdySsHFSPfkxus9liJaRpQovSUxY62EhnoXnnGnPai+CSYUvb7Vb7DddxCFrYlE4b+bhtdDkZOLSttmX0qKwjuw1GuDhGXjuwyajkH9EHJZ31wK2odz0FwKUiGg0jlj8BcIZYlhyxqeFs2phPFWvzyHy63Tgd7ZoaZ3hPbfvEabuHL6Xynfa2/Ian2xyaX+b2eb51eVXLuELL3uv5mixt9Mjv9Vvm0e/F5QwuqwwGeVvbQkaarQ+vv4BrCh2XoGh0talW8nWxNU5oW5W00ZPHve2XGx0hr0PJyHXZNvStpwA4U6QN28BMArgS+GiiOkOwfftafCOJ6JEc8uHLE+7eULUzNz/QqucoMrhM0ve5rRwXZcT4WEtB9OVSmzm97H2MwJaW4xGNpne0OYUij8Xjh1hecl/yWhBlDQcA9w84CeBqaFqPmhYnRpVLBPg7DHf0pugY8QOtei01umxMS1TUcHu9uuHLFXpyWD3yg9By57cLk6fCHa7Q1163lWE1G1F1HldE8SKhNNV/kyjPPCWd8+ggy3Uui0vLawX5boOSTntY38AlBPcTOAngeuAdnnKGoHofIXr2pBz94+8w3BVeAhtFtr6wes54nr67/cBWCh95VLR02gRBR+hCy975JOP2DPmiemV2q4EO69sPznZJL/iLuemabm8mNDxC2g5mU4fiAsqplRPmdWf4AMARyzYAlwycBHBFTKiaTMhnCFZvxNWex7wnNXwoulY5+ahgtQNSj5HZU6CMBr8jn82KTtep2pLa7+nZqwgtO7cLz/iC0FKOagmdoM+sl+Js9MwPvlSry4u9nQlsU00onUzTzmgOLqqcOjhZXvfgVGUbgAsGTgK4KviSIzlDUI3E6e8YMIcia/DZDkiX0uiVjKha0r6huWth+WpGUzYK+CyksJs5PZ9Znr96yZYohHjvI7Ts3NF0xLdd0riKrCdt5FjRy0qJvWa9FGfjWM6x5pg4ObpNNaBtteqyte1K31r2jMrpsWib1welRdkGAGTASQDXBR+te/eGXhYvGRhGWyuHYkOvn78oZxz4sqTLYEg3fEP1uymNRafKNFAmOy5Kxzb+nEIvt92I5w9Me+/rneog732El507mjK+mWGbz+1yRuPRnHWw+2KQY2mQQzizy/G0tFW5trq2Xb/U82C814NJERlbWi3HNGLORm9b8Bhp34qObxe9HdemmjDlkVFIWs6EbqdzeqEo4bzKqQm+7M265eoB8/qQ6GXbmH8KcktX1z0AXDG7Bix/AuCsMW1raN7Oj58GWoTmo/ozWmx9x9Nh3aLSJ06Pe4xyR/Eujveh/H0RQm3dx9OmhfL5tS0Sw2x9WRBWdsNJxVGUxxWpcfG4O+1DqlKXQ56MXOiQbfOZ/81oq4b84LqoxyOC+Hv/1Ot6y091TpJdslgYbEAGDzvQwrFsyozpFGueR+rfTCYR1FbbyOZzr673wu4zm+H2dqC8NqUrsIyJKMNVmmSQMuZpz4JIv1LODelukyYAzhhpwzbgJIDro7YfdnPHv9ZgB2iECnjcx3ASJPUG0BwikSCrnG3Q0yb3TWfPqgXRIWp0xHo0vmFlN3UG1bB3PJmjGcBJkM/1ksOmQ9848iA7d230bEfow6U3oaek3I/fs+N4Ipsy47YNGWx2FsxW28jmea9y5oQS9Hr0QHmdf11yVBkNoW+aADhjpA3bwHIjcH0oLwgKLO8YKNPPglZLjbx3G4noUX5lhr9Q54HluZPbNe3SlJJFTJFoxRTEF6JDSEm6o/XtxF/OtkxuaS3TIHoQShLE87NtEte3fksnWu7mElb2Id2sUxKdUy0uFk8uBDviIADDTI7iVOS6GDEtEpEuqw73cYieTKaLWMqe/6VE5kWpj5tWerYzoVuht3oeiDSItCcif6T+W7/6cCKbMiNtYydsY1HXrfzsYWcHKadtZBP3NjG8EfZntPvPtXr0AHntkiGgjJX+9QyQWbAvH7Ks7daO8tEmTQBcGAPpKeTXCoPBQLoX+ScAAGhArgsv1h7L/cddjSoALmBTAABwcFx9fcwkAAAAAAAAABTgJAAAAAAAAAAU4CQAAAAAAAAAFOAkAAAAAAAAABTgJAAAwoGdPkBoYFMAAHASsLsRAAAAAAAA9wzsbgQAAAAAAABoBZwEAAAAAAAAgAKcBAAAAAAAAIDC4OPHj8bFSA8ePMivAAAAAAAAANeG8APyqzp4cRkAAAAAAIB7Bl5cBgAAAAAAALQCTgIAAAAAAABAAU4CAAAAAAAAQAFOAgAAAAAAAEABTgIAAAAAAABAAU4CAAAAAAAAQAFOAgAAAAAAAEABTgIAAAAAAABAAU4CAAAAAAAAQAFOAgAAAAAAAEABTgIAAAAAAABAAU4CACAsqyWNBwMaiDBervIv7zHbSh+D2RXp4xrluta8AgCADsBJABfNdrWilQjbbf4FOAPe0ya/2rzPL8Cedx+or6mepc0HkOvsuEaZwElBewUuDTgJ4GLZLsc0mk5pKsJoNCOM+107W1otZzQej/cjvUUQn8ezJa18G17RQhvjGYh4xjNaekd0fGDzAFwmKLvgEoGTAC6W9H0xXi15Rx8wOnO1bFeiUz8Y0XR+R5sNz3eB+Ly5m9N0JJc32YxgS8uZcAxGDfGQiGdzR/PpSDgey7McRYbNA3CZoOyCSwROArhYJk9jivJrip7Rk2F+Da4L4SCMpqJTn3+URHFMsQxRaQEZm/mo0VHYLp/T/I7FIn6bxWGIR0REozNckw6bB6A/clS/mEGcHWnmEGUXXCJwEsDlMrml9W5HOxnWN4Q69xpZ0Uw4CAVRnFAq8nt9e0u3MqzXIv9TWrA+/mb+snkqXzoGSZrFsRO/zeIo4kkTJR66e0HWiYlTAJsHICjvPuQXhwZlF1wgcBIAAGfLdvmCShchWtCr24mhcR3SzTqhOP8kevf0wtC7H94IR0A6BpOhuYEeTujm1aIa7aMNvU/zSwAAAOCeAScBAHCmbOnt62p5UPy5bfRtQp+xaYDN67fd3ikYPqFnbDbhHRYOAwAAuKfASbhKVjQrd2xx7KKwmpVrM137gvN1nMq6b7a3ePV9voNM/n0WxuNs/Wet27UV6VV2mvHcrabVnubiuaul9pz8WYfY0YalrUqaTIPcVUd7vktWk34znbF4hAzNcYSVfZvnF8/bw+jwLVU+QkxPJ/llA8Mnz6pZgM176jYJkBJ/v/Dxw0MtCuhvC06bF/kkX9Ru/YxedJSrQKa5aeeptuk+mPxq2autaW9Rp/IzRYz3hqxHutJbjwHqH1MdKOLd71KmxSkUZYyR5ctoXhVy+R5T9ft9HIaJyL0e+timq+yGkNGIKQ4RhByzpSMeU5qEHvzbHnDx7Bqw/AmcPeluEVGWhzLESf61gXQRlfeJjtiu+VZLnOliJzpn2ffRIlU+G0O0ELFlP9wlMX++HiJr2pXnlHHWSZPYnp4iRPFOJj8ILG2ZDGmyi5n+6kHK2vBwXb9CnvrvzfkcVnZXfon0iUTIZ5bfWTPQQet4hI6L+4U+O+WloltbeWiBbqeBbMFq80q5NgeZV70IKZfMO+tvq5CVAQed5XfqV0un6Z42duu6l6Un+3MvHbenrx0Fq3+YHrzaGFP5V8q2Lei/DWSbLtsKIaOGn/4t7ayepgYduswcnC8y/2zASbhSlMq9uQZQOv4yNBd2UVGW92mdJ16RRGqjEsXxLhZBr6iiRaI+W/xO3hdrv7d21FyVrsRQqUWiQcqeJdNVq/w7di51WNrihVbZF8+vydrw7Eb9cp35NYp9ZE/i+v1lXMr3LPRoPfxsmOPvHJtIEzWffDqjXnA71UKZHx1socnm6x27qCyHemenR/YElUtNs0zvYrdIkl0iw6JdunvJb9WvVl/61DkuBbvuZenpXY+0pLcdhax/mB5qbUyph+q7LBjyL7MnERZssEPaWvH9Pmi/CmWbrrIbREaGpn8Zx0K0u63S3ZgmR9sDLgaZnzbgJFwrvEJq6mgr9+xDY8fI1pgZ4jFW0LVO5j7URr60+BrTxO9zVLpZEOk2xqTfZ6t4fWnQSW2QT44Mavc45ZChSZaC0LJr95nyxDhqZWx5/OD24tdh93QShM55p2AhGky1wyIawJCt3qFswcNWjHoTzyn01CN7gsqVdcRkJ6b24wqls9aU8L7yN+rX00GQuDr+HNe9AXXcipB6lEHcYEyPfl9Tuj31oMxiitCkfm5LrrrlILZpkjOkjEpczZ14Jd2+aWrKS3CRyDy1ASfhauGNWkMloVU2WWiopHmHrVYp6RVJUyVSq3BEZ8yjEu9a6SpOSYNcJVramh7pja9OJMq9hrzS43LJIggtuxKfTTkGubvS3knw+Y3W2VPCfpTQ0hfoxqFswWXzDt2nCyFrft2JkHJ5YZnNzOktf4N+lXhd5emQTsLBdbynrx5b6UuT0fi4Fnrgz26qN9o4CX64bVORwaSTgDLyvzuyz36vniZXXoKLQ+arDby4fLUM6Um5TcuGXr+tv1m0elNsLikPk8ovN6+pfuuKyltdL5BGC0qN21QKtJ1j4kRuR5l/0FBeQn33ocVLWgU8zREtXjn2pR7e0Oeili8IuquNTScSRS/mvKqIKXHusR1adh6fSIHNAERca9HqnC9Devg4v6zBTm4eH+gl0KC2oKPl+2f2N72HNzfkeBfcn4PK5cth5F/NBlQe1SHlPNUe90fTcV89hq5/NBx6kIeWFWwudQ/jXjJy/bs3fBg9Ko3GoXuftgdcG3ASrhje0a5vCckqkvgpfVa2LobGZfuB3uWX8l6fhtWMrYMWGJ5mekw+m9TwyrKmr+2KVitbcDRsVlS9WBu26BGN8stGgsvO43M3OlYOqkc/Jrf5gUYspPIgtdJTFjrYSGeheZcTc9qLcCRb0OH51OVE17OSa0vb7VZ7PrdDA33lN5Aux+fhIHhh0XGbvO1tRzyfAtQ/bRk9Ktu9bgNMLjrYZmhsMir5R/RBSWc98JLYu+0B14doII1Y/gQuBsuSIzaNmE0x8mlFbc6RT80apy5d06gM72lQnzht9/BpfN8pUstveLrNofllbp/nW5dXtYwrtOy9nq/J0kaP/F6/JQGe7yTY4LLKYJD3bG2hS74zTipXRpqtt66/0GoKhiUdPeXP0POfBW97sth/Dde9gXTcKm/76rHL712/aaMHj3u5nnzrll62KXGlK5SMXJdtg26DbdIELhKZtzYwk3DV8JEldYZg+/a1+EYS0SM5PMCnqu/eULWLMz/QqucoMrhM0ve5rRwXZXSxzYh6H/TlUps5vXRsdX+WPH54xiPeJra0HI9oNL2jTQhjCyF/tKBEeJ0Fd9OGmaVr5uLs6BAEts0zJso6AwBUwEm4cprWLqbFiVHldDJ/h+GO3hQdI36gVa+lRpeNaYmKGm6vVzd8arsnh9UjPwgtd367MHkq3OEKfZ3uRdhCh2UWp5RrNRtRdb5VRPEioTTVn58o+WIl0DKT0c0rqvyEDc2fL4PEe2w65+1BlutcFsFt85jIJXJKOu1hfQOXEKjASbh2eIennCGo3keInj0pR4r4Owx3hZfARpGtL6yeM56n724/sFWlRx5BK502QdDRnNCydz7JuD1DvsBamd1qoMNa6HPkYLZwYhrl2i7pBX/RNV3T7c2EhmeRf0O6WbMO4GZOI9NpuWfC2dnOBdS9Vs7aNhvggzpHrK/BdQIn4eqZUDWZkM8QrN6Iqz2PeU9q+FB0rXLyEaRqB6QeI7OnQBkNfkc+mxWdroHdktpG9myBQsvO7cIzviC0lKNaQifoM+ulOBsB8qMVPWxB6RyYdik7JRa5+HK2Pi8cH0z+Cd2miyruuymNfdcdHXUkPlA90lePF1X3Oghlm8fkVPU1uErgJNwD+JIjOUNQjdro7xgwhyJrHNgOSJdSQZaMqFrSvqG5a2H5albtYiKayGchhd3M6blt9HH1kk1nh3jvI7Ts3NF0xLdd0riKrCdt5FjRy0qJvWa9FGdD6CNon+WQtqBtgenK9+0q4Davx7BxzXmrcUj5hzf0ir2fsJk/b34/wbeT3basHKse6a3HM6p7j4XLNo9Ki/oaABe7Bix/AhcHO+hFHu9e7NBg2k2D7YzAj2G37gDRYgcEvsuGdeMPnzhd92i7PETigaZ40oTFI4M1YZ7wtBVBpLF+UqrHs1votyS07Fp8tVOyBak8uZjdk4W+utTlWBjkYCe/ZsGko0yH8rA08ftGBaa7hO8OI0Pf9EuOaQs1fRmElfqK93L67ezSQCi5lL+bDwGrn+bdsINMX/kd+lV3CWpIg/iVyx7r8ojgyu8idLWdNvTVo/57kR5DDCIKz3Q78kXB516ePlt8il572qYrXSFl9Mk/BVH3Ger0VmkCF4nMWxtwEu4Jpi3wzBWHdrx/Fhynd7aoSI7qJAiMcktHKd6H8vdFCFUR8rRpoXx+bTu9jo1LA2FlN5xULJzIfVyi882/53H37awI6nLIzn6hQ61T32SrhvzguqjHI4L4e//UC9izueO9/1w8v/puH7ragulEaa4v9W+9sieYXHqa85Ovk0Q4bQtDHDI05U1P+dvqt6HMKFuRZqFKg2KHQm/lZ1NmGOy2CK1tpxX97Sho/ePMF4bPvbpeRT7s5ZL5xuuQgLbpSldgGZPcgauClDFPexZE+pW625DuNmkCF4nMWxtwEu4L2siCWhGq1Cr3ABVWAY/b2kHxidPzufXK0hyaRrs6oaetNtqkBdF4NjpiPSrqsLKbOg5q2DuezNG0ZrIvqZ8cNh36xpEH2RFoo2crLP+kOpy2YCmbfrbgzicZett7SLmkzbhsSzykmumxdYR7yO+jX36PDFJ4Ay572z/fUVb09PSpR1rT346C1T9edp/jeW/dkSuCbqeBbNOVrqPKaAh90wQuEpm3NuAk3Bu0GQJbgdccCudUJa9ITA0do3ISREVsuzVl6W1Ka4vnyjUmiVwOo1f2ciRPjq6Erv1MlatMg2g0y+/z58emJTScNnKaCCq76VAhPR62/KdLehtI8+UNiv5EkKOTC/FwPzH2upAjhno8+9HEw9pCqY4j2IJcylGTs1OeNxBSrgyTnYq4RP4mIt7sDi8nYU8n+X31q3TWZfry7zWKNJTPF0EvK62chOy7PjpuT287ClH/tLB7/V5b9Oa6zPSbALbpkuFAMlb6rzsM8jtZ58n600ibNIGLROatjYH8R9xUYzAYyF/mnwAArZAvJY7mlL1HKPeqXt+cz7Z+AIDLAPUIAOCAuPr62N0IAAAAAAAAoAAnAQAAAAAAAKAAJwEAAAAAAACgACcBAAAAAAAAoAAnAYBD8/ghXjYEAPQD9QgA4MhgdyMAAAAAAADuGdjdCAAAAAAAANAKOAkAAAAAAAAABTgJAAAAAAAAAIXBx48fjYuRHjx4kF8BAAAAAAAArg3hB+RXdfDiMgAAAAAAAPcMvLgMAAAAAAAAaAWcBAAAAAAAAIACnAQAAAAAAACAApwEAAAAAAAAgAKcBAAAAAAAAIACnAQAAAAAAACAApwEAAAAAAAAgAKcBAAAAAAAAIACnAQAAAAAAACAApwEAAAAAAAAgAKcBAAAAAAAAIACnAQAAAjNaknjwYAGIoyXq/xL0Jltpc/BDPoEAIBjACcBgAtnu1rRSoTtNv8CnAHvaZNfbd7nFyAM7z6QydRRDs4b5A8AlwecBAAumO1yTKPplKYijEYzwhjrtbOl1XJG4/F4P6peBPF5PFvSyrcDJnpqxngGIp7xjJbeEZ0HKAfnDfIHgMsETgIAF0z6vhivlryjDxilu1q2K9GpH4xoOr+jzYbnu0B83tzNaTqSy5tsRrCl5Uw4BqOGeEjEs7mj+XQkHI+lccT+HEE5OG+QPwBcJnASALhgJk9jivJrip7Rk2F+Da4L4SCMpqJTn3+URHFMsQxRaQEZm/mo0VHYLp/T/I7FIn6bxWGIR0REowtZ/49y4I8c1S9mjmZHmjFC/gBwmcBJAOCSmdzSerejnQzrG0Lbe42saCYchIIoTigV+b2+vaVbGdZrkf8pLVgffzN/2bykQzoGSZrFsRO/zeIo4kkTJR66e0HWiYlzAeWgE+8+5BeHBvkDwEUCJwEAAM6Y7fIFlS5CtKBXtxNDJ2tIN+uE4vyT6N3TC0PvfngjHAHpGEyG5o7acEI3rxbVqC9t6H2aXwIAALhXwEkAAICzZUtvX1fLg+LPbaOwE/qMTQNsXr/t9k7B8Ak9Y7MJ77CAHAAA7iVwEsCVsqJZuWOLYzeN1axco+vag52v51XWfbN93Kvv8x1k8u+zMB5n64Br3a6tSK+y04znbjWt9o8Xz10ttefkzzrEjjYsbVXSZBrkrjra812ymvSb6YzFI2RojiOs7Ns8v3jeHkaHb6nyEWJ6OskvGxg+eVbNAmzeU7dJgJT4e6aPHwZeHCJ0J1+ebm0DNg51jkLvtAawO1vdUkvXSvzFAKvjRvMqc+X7K9Xv93EYJqD2emjaDStEPRVCRiOmOEQQcsyWjnh61zkAXAG7Bix/AuACSHeLiDI7liFO8q8NpIuovE90xHbNt1riTBc70TnLvo8WqfLZGKKFiC374S6J+fP1EFnTrjynjLNOmsT29BQhincy+UFgactkSJNdzPRXD1LWhofr+hXy1H9vzuewsrvyS6RPJEI+s/zOmoEOWscjdFzcL/TZKS8V3drKQ3vUsmYOUn81XHbuWQ7a0DmtOcHsTrd9LqsxGPJdyVNb0H/rKrNVyNLWRIv86yyjhp/+LfWrnqYGHfYp3gCcGmnDNuAkgKtFaeSbWwKl4y9Dc6XPO2Ba54k3KJHauYjieBeLoDdY0SJRny1+J++Ltd9bO2quxldiaNwi0THJniXTVesEdOxc6rC0xQut0S+eX5O14dmN+uU68+sc9ZE9iev3l3Ep37PQoxfhZ8Mcf+fYRJqo+WTt+LWk3umOyrKhd0Rr6XbZuU85aEGvtEpC2l2j7bM49fhqOhDObZJkYcGc3ChelN/vg/YrRQ9SB4vdorh34akLSYv86y4jQ9O/jGMh6ttW6W5Mk6POAeCCkDZtA04CuF54w9TU0Vbu2YfGjhFvePRWxRCPsaGudTL3oTaCrsXXmCZ+n6PxzYJItzEm/T5bA+xLg05qkwVyhkG7xymHDE2yFISWXbvPlCfG0UtjD8QPbi9+HXZPJ0HonHcOF6LjpHZcRUcoZO/HQ3cyTUXaa+nmv3fZR1/bDZlWGQLbXXFvrcrQOsZNec87/i6byu6VHeymGT6B4kg0P9SePyFlVOJq7sQr6fZNU1NeAnChSLu2AScBXDG8w9TQWGiNThYaGmveYas1TnqD0tSY1Boe0RnzaMy7Nr6KU9IgV4mWtqZHeuOrE4lyryGv9LhcsghCy67EZ1OOQe6utHcSfH5Tnz2rwn602NIn7IS37gTpQjw/vy7hOjXlpevvLeibVuX3IcqcwZ6a4vSxlzZOgh+WGdaCNvknQw8Z+d8d2We/V09TT7sC4ByRtm0DLy6DK2ZIT8ptWjb0+m39DbPVm2JzSXmYVH65eU31W1dU3up6gTRaUGrcplKg7RwTJ3I7yvyDhvIS6rsPLV7WK+BpjmjxyrE/+fCGPq/20Ay7q41NJxJFL+a8qogpce61Hlp2Hp9Igc0ARFxr0fs4X4b08HF+WYOd3Dzu8SKxgpYXn9nfvh7e3JDj/ewD0jetBy5zjnIkDy0r2Fzq3rW9ZOT6d7/oP3pUVcZ23fvUOQBcH3ASwFXDO9r1LSFZgxI/pc9sDsX2A73LL+W93Tsxtg5aYHia6TH5bFLDG82avrYrWq1swdHBsaLqxdrBiR7RKL9sJLjsPD5358PKQfXox+Q2P9iKhVQepFZ6ykIHG+ksNO92Y057EdiPuO5OcdruMdMa2u7aMnpU1nfdBhZcbGm73Wr64zIfAZuMSv4RfVDSWQ+8luld5wBwhcBJANcNH6HWZwhYgyJHhhWHQmswtm9fC9dhj3UU+ZxI35dp9m3khhYPZvVyStOpLVhO+fWAd5Z6E1h2hZ4dhsPqcUsfWI+tzfalQ3mQ2q08dVk9TG3+fFnrbLaSgefFCThqWg9pdyeDb1s8otFopOlvftL8VeD639zRXEmnIbDtYAEAdeAkgCuHj1CrMwRVxz+iR7I15w7F3RvWUeMHWvUcRQaXyYk6usoo87GWj+jLpTZzetnH++M8fng5SzYuKa0HY0vLsXAMpne0ufL+dJQ1AgAADpwEcPU0rWFNixOjymUF/B2GO3pTdIz4gVa9lhpdNqYlKmq4vV7d8CUOPTmsHvlBaLnz24XJU+EOV+jrtTvLcJAlMHYuKa3nxmo2omqwPaJ4kVCa6vpLFFs5G+S7DUo67WF9A5cQAB04CeD64R2ecoageh8hevakHDHkS47uCi+BjSJfzFIjHc/Td7fqWpWjjqSWTpsg6KheaNk7n2TcHmUpijK71UCHNfHgQFxAmbOyXdIL/hJ2uqbbmwkNz9mmuDN/xHIKwLUCJwHcAyZUTSbkMwSrN+Jqj7Jue/hQdK1y8pHEagekHiOzp0AZDX5HPpsVHayj7qT7WnojoWXnduEZXxBaysHfnek166U4Gz3zQ+m4mXYOOyP6pvWiypwD5f2KE7xw3oVTlVMArhQ4CeBewJccyRmCavROf8eAORRZJ4HtgHQpDWXJiKol7RuauxaWr2Y0ZSOHz0IKu5nT85nl+auXbFlDiPc+QsvOHU1HfNsljavIetJGjhW9ZC9i9pn1UpyNvs6xtr2tKy+2q1Bbr3agd1rPqMwdC82hPC0tyikAwAmcBHA/4CN8797Qy+IlA8Noa+VQbOj18xfljANflnQZDOmGb8J+N6Wx6Kib+l+ys6N0bOPPKfQS3Y14/sC0977eqQ7y3kd42bmjKeObGXqy2+WMxqOQu70Y5Fga5BDO7HI8LW1VrseubfEv9TwY7/VgUkTGllbLMY34ri+9bcEkgyEBUoaZePZ0Ti9ONt3QN63nVeZM8CVs1i1XPWZVsl2Pgtp7f/Ryasw/Bbmlq+seAO4puwYsfwLgIuGnaxbBfOIoP0G0CM3H+2e4ThRleJ8I6hOnxz1GuaN4F8f7UP6+CKFOFtVPLGWhfH7t5N+OJ7Y2EFZ2w0nFUZTHFalx8bhdx756UJdDnoxc6JCdzJ3/zWirhvzguqjHI4L4e//US0ynPHMZ1L9ZT7815VFH+zDTM62CoHbXRjafe3U7KGw4y39uO7oe8tO4k2SXLBY1PexDgBOXA8iYiPJYpUkGKWOe9iyI9Ctl1pDuNmkC4EKR9m0DTgK4PyRx3iAUobnjX2vkAzRcBTzuYzgJknqjaQ6RSJBVzjboaRP6Lz+bguhENTpiPRrssLKbOpBq2DuezNG0ZrIvqZ8cNh36xpEH2SFso2c3bt3JYMwHV/73sA8zPdKaE8zu2sjmeW+6aEqbXicKO3bZu0h/UsZ3Hk6CpFlGQ+ibJgAuFGnfNrDcCNwflJcKBZZ3DJQpa0GrpUbeO5RE9Ci/MsNfwvPA8txJdkhWSskipki0fAriC9EhpCTd0fp24i9nWya3tJZpEL0OJQni+dnWiutbv+UWLXeACSv7kG7WKQmHR4uLxZMLwY44CMAwk6M4FbkuRkyLRKTLqsN9HKL3k+kilrLnfymReVHq46aVnt1I3e2E7hb1Z7fJB1f+B9khqH9aD1Lm2sgm7m1ieCNsyWjDn2t14oRuhb3XZRD3CptLhHwy/a1eWQmZfw4ZK/3rGSCzYG/rstzs1g5bb5MmAK6IgfQU8muFwWAg3Yv8EwAAtESugS/WK8s9y10NMQAAAACOhquvj5kEAAAAAAAAgAKcBAAAAAAAAIACnAQAAAAAAACAApwEAAAAAAAAgAKcBADA4cHuIAAAAMBFgd2NAAAAAAAAuGdgdyMAAAAAAABAK+AkAAAAAAAAABTgJAAAAAAAAAAUBh8/fjQuRnrw4EF+BQAAAAAAALg2hB+QX9XBi8sAAAAAAADcM/DiMgAAAAAAAKAVcBIAAAAAAAAACnASAAAAAAAAAApwEgAAAAAAAAAKcBIAAAAAAAAACnASAAAAAAAAAApwEgAAAAAAAAAKcBIAAAAAAAAACnASAAAAAAAAAApwEgAAAAAAAAAKcBIAAAAAAAAACnASALgvrJY0HgxoIMJ4ucq/BAAAAACoAycBHITtakUrEbbb/AtwBrynTX61eZ9fAAAAuCrQ/oJQwEkAwdkuxzSaTmkqwmg0I4xZXztbWi1nNB6Ps1mKMojP49mSVr4NlWjRjPEMRDzjGS29IwIAgPsJ2l8QEjgJIDjp+2K8WvKOPqBvd7VsV6JTPxjRdH5Hmw3Pd4H4vLmb03QklzfZjGBLy5lwDEYN8ZCIZ3NH8+lIOB5LcTcAAAATaH9BSOAkgOBMnsYU5dcUPaMnw/waXBfCQRhNRac+/yiJ4phiGaLSAjI281Gjo7BdPqf5HYtF/DaLwxCPiIhGs+scG5MjgMXsyQyzJhcP8hOcwgbQ/oKQwEkA4Znc0nq3o50M6xtCHXWNrGgmHISCKE4oFfm9vr2lWxnWa5H/KS1YH38zf9k89S0dgyTN4tiJ32ZxFPGkiRIP3b0g68TEFfDuQ34BrgLkJziaDaD9BQGBkwAAaM12+YJKFyFa0KvbiaExGtLNOqE4/yR69/TC0Lsf3ghHQDoGk6G5QRtO6ObVohodow29T/NLAAAAABwEOAkAgJZs6e3ranlQ/LlttGpCn7FpgM3rt93eKRg+oWdsNuEdFtoCAAAABwVOwlFZ0SxfnzgYOHYdWM3KtYwDxxpsvu5RWfe95fviF9/nO8jk32dhPM7WS9a6XVuRXmWnGc/dathzXWmX6dmultpz8mcdYkcblrYqaTINclcd7fkuWU36zXTG4hEyNMcRVvZtnl88bw+jw7dU+QgxPZ3klw0MnzyrZgE276nbJEBK/H28xw9DTqIXuyrxPGgORpMWul827cxksyNWzkfzSkD5DoceT/MSq4b0i7TMlivxVxNHrosKAujJ7+X1LS1LfdjKoB+mcmosW4Hys3e9EKBuam9TPZG2MZMy8mc67ELhQHoz6kKmq0EPfW2gaxkpcLW/IWQ00sNmetsrOBi7Bix/Ap1Jd4uIMt3KECf51wbSRVTeJzpiu+ZbLXGmi53onGXfR4tU+WwM0ULElv1wl8T8+XqIrGlXnlPGWSdNYnt6ihDFO5n8ILC0ZTKkyS5m+qsHKWvDw3X9Cnnqvzfnc1jZXfkl0icSIZ9ZfmfNQAet4xE6Lu4X+uyUl4pubeWhJa4yYQiqyC77qUJmIzoNNlMPZr352ZGpvB65LuqrJyWfPGyI69VSB7lRZTIGHv9R8lMEV71w8LrJ0Qa0RLUxc5B1WBMH05uzfjDkY2cb6FlGCniaTbYfQkaN3jajp6mFvYJ+SL3agJNwZJTKsLnE1Bqm5sLBO2BaA84LXqRWwlEc72IR9IIdLRL12eJ38r5Y+721s+CqpCSGSiASFXj2LJmuWmXp0THwgaUtXmiVY/H8mqwNz27UL9eZXyPSR/Ykrt9fxqV8z0KP2tbPhjn+HVITaaLmk7WBbAUvOyLIDoSw/yQRZUA4XaptLLLvZeBPVzs34jfxYrfI70sW0gZYHCLUZRcOXn6/fGZxn4yn+H4fDDJrdiRtqEi/z7OPWRf115Nq5y4baHOvDbVsiXIl6ox9mhcszbx8hsvP7Hdd64VAdVNbm+qCahsySPvI5fZ53lH0xuLU46u1cd1sIEQZyXC1v0FkZISwma72Cnoj9WwDy40AAAAAAAAAKrmzUMPyJ9AH7uU3jcYr9+xD42gY9+J1F90Qj3HUozYSvQ+1ZTZafI1p4vc5RjKyINJtjEm/zzaa4UuDTmoDe3IZknaPUw4ZmmQpCC27dp8pT4xTwcbhHD/aj9J6ziQInfORtsVCHwWUI7k+z/PDOZKu6NY8ipXFIUfOTCPDOc7n5PD7nHr1SJtEebZuQ0och62LguiJx2+tC3jZ7TP6aJmlzZGzXLGUy/CM7vkpgpDf+Av9Ps96wRpngfKbjjbVFi2dRj2JeqGoP2pmcQy9iXtrTaE2em4yV0kbGwhSRiRcBpOcIWVU4uphM6Y0NeUlCIrUtQ04CUeHd5gaCpVWOLPQUKnxDlutEOsFr6nQ1Qqo6Ix5VHpdKynFKWmQq0RLW9MjvfHViUS515BXelwuWQShZVfisynHIHdX2jsJPr+pL2upwn7q3dJ2doA/r3npHLf37ipzdzYl/FkuvXJ9utLVfO8R6yIvXHry7PzzNPewc6XMdIina34GqRN71k0ucfvn9R5FbkdEqVzqlV8XHFxv4qZmM6vua8rfNjbgh0ddwmUw6SSgjG3swHpvB3sFYZD6toHlRkdnSE/KvRw39Ppt/XX91ZtiB3p54mx+uXlN9VtXVN7q2mUmWlBq3MteoG0vGSdyz/r8g4ayU827Dy12PijgaY5o8cpx2Mvwhj4XtWJB0K0vbTqRKHox51VFTInz4JrQsvP4RApsBiDiWota+nwZ0sPH+WWNDW3u5jQdyR1lfHc6ccF2S4oe0Si/1BmyRJ3Ptqstyr1g9Kgq3KoMJ6qLOsO3093Q/KV5p6UqzY4y4WL4kMrcv3sjJDwUh64T29ZNfWyqDZrcn9kfOry5ERbAObDeHO2DPNm4YHOpB7f0kvFQNuNjr+BYwEk4AbyjXd83nhW8+Cl9ZmvEtx/oXX4p7+3eHNo6aIHhaRZNsM9Olrxyqelru6LVyhYcDYEVVS/WhsDS0SwJLjuPr2fH7KB69GNym58SykIqT1sue6dCBxvpLDRvHWhOexEOL4NIBG23W+25PJ8CwPNdqOaD8qx64Far2/Dp6qJuelIGKYwdd0fHpZWNTKjqI93RdLDfKjo4oesFnbZ1Ux+baqNf5ZnP6EnbXuGh9eZi9KiyxU4DZi6OUJe4sMkYymZ0fOwVHA/REBux/An0xjLNz6bdsik5Pg2nzdE5l0K4ph0Z3tOGPnHa7uFLAXynFC2/4ek2B21KtoVOJFzHtenwlnGFlr3X8zVZ2uiR3+s3ha4uJbLaVxNcVhkM8razhfZLgJrTnWbrd+u7qJiC37OseuX52DbUhDhSXZQRQk8OW7LYuKR1fSHtpJZeufwt2aUO0++UnyHqBUmfuqFtYHpupd8ucnNOrTePe71toCRAGXGlK5SMgWwmo02aQFCkzm1gJuEk8BFqdVRu+/a1+EYS0SPpTvMlL8rIGT/19lDT++CsSd/ntnJclNE424hQSPTlUps5Naw28UQdJX5hmprYLul5eRhSXh5ryEO7RjSa3tHmFJnRkqgmxLHqolB64kukZDJUIwi21KhkQrfrlBLhKTCrp83dlEZy+Zv3QV/XS92mOvD4ocjZ+85l1SV9CGIz4CjASTgRTWv90mKhdDn9yhvFOyrbRH7qba+lRpeNaYmKGm6vVzd8Krgnh9UjPy25qbPtweSp6IJW6Ota28owuU3K+LLTUOWprMv91Hh28utoXjph0eIV3Rh6MavZiKpDVSOKFwmlqf7c6jnBkWuKlWfZw9ogxDHqopB6Gt58Xt2nOCvuNdLd7Hwofrem9S6lNFlU72YI9u/K2E5PvkB62FTneuQgy3Uui5PXJX0IUA+B8wROwqngHZ6yoasauejZk3Jkha/DLUfO2ChymBGzE7B5r6xTbGL7ga3CPPKIU9lREgQd/Qgtu2d8IeAv86qdtAY6rB0+BqvZC9HVZWzuaD6f0nQ6pfndpnIQ4oRemRq17ZJelBFEtEjXdHszoeGh5ePOYYh8P3RdFFxPDbNAqzdlfkaLz8yd0V4MaTi5odu16OikorNWZULjS9StOVWdGNqmjs2p9BaKU9Ulfbh0mwFewEk4GWpDl7W3rJF7zHtSfJeNfMSlmlbvMTJ7CpTR4HfkszHGwTrqTraktik9a+zQsnO78IwvCC3lqJatCPrMeinORs/8yBrlfaoiOWKnjRDLchVFMSVpSuum3T/4cq8uL152JXi+H7guOoCelNmP/AVUno5nh86M4YRuXy2qTpKPs9zEOdSJp6hLlE6maccsBxfVljg4VV3Sh1O1P+CowEk4Ibyhk6Ny1SiHPlXOGvGsMmXT6pdSoZSMqFrS7jECt5rRtJA1dOO/mdPzmeX5q5ds+jfEex+hZeedO0d8olM8riLrSRs5VvSyUmKvWS/F2RD66NXGl42y1KtwAooR4nJKfE3r9S1NQgzlac5Nf1rkuydnURe10RPvIJ6qTlQ6SX04hzoxvE050baYdj1zu9Lf/zijtuRYBK9L+nACmwHHRzSIRix/AsFgO6xEcbWLhmFXDr6TQBR57pjQYscAviuF6fElPnG67tF2Rch2Csn/xJGnmZbxyGBNmCc8bUUQaawd1KXfZ3p2C/2WhJZdi692SrYglScXs3uy0FeXuhwLgxzspNQsmHSU6dC1W0y6S9guIVkImf6GPHCi2Ij5cK9sp5LyHhmadzdS0uSyp5r+XRIIHVpPoztgXRRaTzl85xge/HaRcZPFL3TRqDZXfvXJzwab9K4XQtRNvW3KA59nynok3ud17e+n1JvPvb42ELKMuNIVUsZQNtMmTSAoUuc24CScGNOWceaCxrdsLIK5MilpUfCO6iQIjHLLzkm8D+XvixCq4uBp00L5/Nr2cx0r4wbCyq5uCbm/P8rjEp1v/j2P25rJftTlkJ39Qod6B67BVg35wXVRj0cE2XHLf94Ho/NUBPFc2QHOQrzYLYydIV33+3uTJBFOzcJgRzJY0q7rQjy70kFdf0necaqCvD9/fhZEGhQbsOvtcHVRYD0VGMuyo05sgeKESJsUjnCp1yxPqucai1Pr/GT35qFzvdC5bgprU24M9VdmH7nc2t9Mej6Z3nzu9baBgGXEla7AMgaxmTZpAkGROrcBJ+HUaJ64WnGo1CrDAAW8gMd9DCdBUq9czKFpdKgTetpqozNaEI1NY6ejR8UWVnZTQ6uGfWePde6smexL6ieHTYe+ceRBNpxt9GxD5r3pGY1ByFHXmtCpS/dC19VMiL1T1TQ63lQvNN9vCC4bPWRdFFhPewx2H8Suc3j5tgTb6Gnb/AxWL/Som4LalBfu+ksGm8wn0Zvnvf42EKiMuNJ1VBkNoW+aQFCkzm3ASTg52qicrYC0ndrjBc/ReFaNvqi4rL0Ylt6mtLZ4rlxjksgRXb1yjPKRlNC1hakykmkQjUz5ff58OXJofXwbOU0Eld10CI8eD1v+0yW9DaT5cgBFfyLI0Tw5Au8nxl4XcoRNj2c/+hbYFvSyJOMvR76EPDIt5YgfT4vJ5k35KOSQTkW+hqpqRN2dX3M+WmyxtKN6Qy2/k7ozz4ToHLAuygirJ4neOQlo1jkNupV6lfWDh9jd85P/RgTxTO96IVjd1Nem/JFLgmrlv5XMR9abdq8ten8bCFBGXDIcSMZeNtMmTSAoUuc2BvIfcVONwWAgf5l/AuBKkC/wFvvfy72d1zfnsw0eOBL7Q4uK96njJKXbicUKtiuajab5bj/77QmxzfeZwMszxZRc87koAAAQGFdfH7sbAQDuGexwN+EofmZzECRDvosKOCdWL/mBd4c4GwEAAO4vcBIAAPcXj/3Zt3wr3IvbcviaYdueXuqWlgAAcMbASQAA3DO0/b1HAxqMZzRbLmm1WuVhScvZjMaDAY3Y+RLx51iedi5sl+zEbDhvAAAQHLyTAO4XeCcBZGyFE/Cc5vmpy24iipNX9ncXwBHR3yvZibzZXwMAAPAD7yQA0MTjh3AQ7i1Durld0y5NaBHHFEWGlw7Ed1EU0yJJKd2t4SCcE9u39Lp6GSHAaegAAAB0MJMAAAAAAADAPQMzCQAAAAAAAIBWwEkAAAAAAAAAKMBJAAAAAAAAACgMPn78aFyM9ODBg/wKAAAAAAAAcG0IPyC/qoMXlwEAAAAAALhn4MVlAAAAAAAAQCvgJAAAAAAAAAAU4CQAAAAAAAAAFOAkAAAAAAAAABTgJAAAAAAAAAAU4CQAAAAAAAAAFOAkAAAAAAAAABTgJAAAAAAAAAAU4CQAAAAAAAAAFOAkAAAAAAAAABTgJAAAAAAAAAAU4CQAAK6b1ZLGgwENRBgvV/mXAAAAALABJwGAgGxXK1qJsN3mX4Az4D1t8qvN+/wC9Aa2Ds4d2CgA/YCTAEAgtssxjaZTmoowGs0IY9bXzpZWyxmNx+NslqIM4vN4tqSVb8dE9GCM8QxEPOMZLb0jOh6wdXDuwEYB6A+cBAACkb4vxqsl7+gDRq+ulu1KdOoHI5rO72iz4fkuEJ83d3OajuTyJpsRbGk5E47BqCEeEvFs7mg+HQnHYynuPh9g6+DcgY0C0B84CQAEYvI0pii/pugZPRnm1+C6EA7CaCo69flHSRTHFMsQlRaQsZmPGh2F7fI5ze9YLOK3WRyGeERENJqdz1ioj63LkdxiVmR2hrMh4HicwhZQHwPQHzgJAIRickvr3Y52MqxvCG3SNbKimXAQCqI4oVTk9/r2lm5lWK9F/qe0YH38zfxl81IH6RgkaRbHTvw2i6OIJ02UeOjuBVknJo5JS1t/9yG/APeeo9kC6mMAegMnAQAAPNkuX1DpIkQLenU7MXQ+hnSzTijOP4nePb0w9O6HN8IRkI7BZGjuwAwndPNqUY2G0obep/klAAAAcGDgJAAAgBdbevu6Wh4Uf24bnZzQZ2waYPP6bbd3CoZP6BmbTXiHhdUAAACOBJwEcARWNMvXow4Gjl0mVrNy7erAsQabr3NV1n1v+b74xff5DjL591kYj7P1sbVu11akV9lpxnO3GvZcV9plerarpfac/FmH2NGGpa1KmkyD3FVHe75LVpN+M52xeIQMzXGElX2b5xfP28Po8C1VPkJMTyf5ZQPDJ8+qWYDNe+o2CZASf//y8cOQiyaKXZV4HjQHxaSbbJ2V39G8Srh8N6P4fh/GlqVTAewjpL3nmNJ0GDtbZS+0d01naP3V6tBaulbiLwb62oLUQ9OuXyHq4xAyGmkoV0KO2dIRjylNrepWAAKza8DyJwBaku4WEWU2JUOc5F8bSBdReZ/oiO2ab7XEmS52onOWfR8tUuWzMUQLEVv2w10S8+frIbKmXXlOGWedNInt6SlCFO9k8oPA0pbJkCa7mOmvHqSsDQ/X9Svkqf/enM9hZXfll0ifSIR8ZvmdNQMdtI5H6Li4X+izU14qurWVh5a4yoQhKCI32XqDLdSDWR/B7COkvQvpeF1jDJby3ga1/jMHadNNHEJ/XnWoKT8724Irr6qQpa2JJhstCCGjhp/+Le2InqYGHXpVPwB4IO3JBpwEcBSUxq+5hqw1xs2VIe+AaZ0nXtFGaqMbxfEuFkGvyKNFoj5b/E7eF2u/t3bUXI2SxFDpR6LBzp4l01VrHDt2LnVY2uKF1hgWz6/J2vDsRv1ynfl1GvrInsT1+8u4lO9Z6NG6+tkwx985NpEmaj5ZO0St4GVHBNlhFPafJKIMCKdLtY1F9r0MytMbbV04bvn9Mq4iniiu4tkHgywh7SOgvat2JmxMxJfJIP6vOrN2W/Wh7iCIvMhl1zvNRls6kP5qdWipv+q7LNTqvG62oOpB6mCxWxT3Ljx1IWm00ZwgMjI0/cs4inLlne7GNDnqVgA6Iu3LBpwEcBx4hd3U0Vbu2YfGjhGvkPXa1hCPsQGrdTL3oTaiqMXXmCZ+n6NRyoJItzEm/T5bw+RLg05qfTU54qrd45RDhiZZCkLLrt1nyhPjqJ6xZfaD24tfh93TSRA6552mhehQqB062TH1eZ4fTmdH0W1Dh4Tf05BH/DlOfR3YPop729u7ZTAiRzpzsewQOkS0oqXXqC+R1sKeatl2Iv0ps3QiNNl4G1vI7pX6rGVWhdOGJVwGk5whZVTiau7EK+n2TVNTXgIQAGljNuAkgCPBO0wNlahWGWehoRHjHbZapa1XtE2VbK1CFp0xj0aua6OkOCUNcpVoaWt6pDe+OpEo9xrySo/LJYsgtOxKfDblGOTuSnsnwec3tqUs+1FUS1+pA/x5zbNi3N6NKuN6bchPHodLX8HLhiHfG+NU7tXsnf+th+248LZnQSpnMvLrglPqz6dctLEFP9zOmyKDSScBZeR/d5mJ9V49Ta68BKAn0s5s4MVlcCSG9KTcpmVDr9/W37xavSk2l5SHSeWXm9dUv3VF5a2uF0ijBaXGbSoF2s4xcSK3o8w/aCgvob770OIltgKe5ogWrxz7dg9v6HPRChYE3dXGphOJohdzXlXElDj3IA8tO49PpMBmACKutWiVz5chPXycX9ZgJzePfV9adcFehI4e0Si/1BmyRB1+R6UDl40+9j58SKUm7t6IlB4CTf7P7G/ED29uSL3jtPqTh5YVbC51j95eMnL9uzc0GD2qGh277n3qVgAOC5wEcDR4R7u+JSSraOOn9JnNodh+oHf5pbzXUSdbsHXQAsPTLLodPpvU8Makpq/tilYrW3A0/FZUvVgbfktHsyS47Dw+d6Ns5aB69GNymx/4xEIqD1IrPWWhg410Fpp3gTGnvQiHl6EXoe2jNTZ7n1DVP7yj6WC/I5qTNnnC5e9yMvCp9Td6VNbrotfbMy9MbGm73Wr64zIfAZuMSv4RfVDSWQ/cunrXrQAcGDgJ4HjwETt9hoBVtHJkWHEotIp0+/a1cB32WEeRz4n0fZlm38qfj+bqrF5OaTq1Bcspvx7wTkRvAsuu0LMhPawet/SB9WTabF86lAep3cpTl9XD1ObPl7VOWGcZLNuyblnCw267auCQ9uGJzd4nt0k1sylSejeVW3jm22I29Ihb5QmXvwtnoL/w8O1qRzQajTT9zfvpLCRc/5s7mivpNAS2HSwA5w6cBHBE+IidOkNQdfwjeiRbOe5QKNP8/ECrnqPI4DLp26nqiDL6ahsBDIm+XGozp5d9vD9tZNx0ErTcq/152ZHJy+O9ZkK365QS4Slwh21zNxWd10GL8ws8ePwQy0tEHb8cC8dgekebK+9PRyhc4MyBkwCOStPazrRYKF1Ot/N3GO7oTdEx4gda9VpqdNmYlqio4fZ6dcOn/ntyWD3yg9B6dLYnT4U7XKGvY24rQzYynl9nB1vJA7aW+6UQ2SFeo2qUNlq8ohv0WgVDobc1rXcppcmCzSwIHWbvjahLwTrb1UGW61wWq9mIqsH2iOJFQmmq66+y4bNCvtugpNMe1ihc4MyBkwCOC+/wlDME1fsI0bMn5UgaX3J0V3gJbBT5YpYa6XievsuXfBx7hLF02gRBR7tCy975JOP2KEs0fF5i7bBW/BisZi+E282QSyTm+6UQ87tN5SDECb06difmRGXD396HNJzc0O1adPJSdRnSvN8UTxguoG6xsl3SC/4Sdrqm25sJDc8mgQb4oMUR6yMAjgGcBHBk1OUOWd9/9abstCjrn/nOIvkIW7UD0oUtg1BGg9+Rz4YxB+uoO+m+lt5IaNm5XXjGF4SWcvB3Z3rNeinORs/8yDph+1RFcoRWGxWX5SqKYkrSlNa2HYFCcvKy0dHehxO6fcXeGem6+5HSyTTt5ubgouoWB8r7FR1e4j4Fp6qPADgCcBLA0eFLjuQMQTWqpb9jwByKrPFkOyBdSgNSMqJqSbvHqONqRlM2ovYspLCbOT2fWZ6/esmm+0O89xFadu5oOuITneJxFVlP2sixopfsBcU+s16KsyH00atPV3bCpF6FE1CMipdLINa0Xt/S5KhDtwcuG4e0d6WD2BFtC1aX/NuV/g7EGdUtx0JznE9Li/oIgAsDTgI4Pnzk690belm8ZGAYba0cig29fl4tk+DLki6DId3wzcnvpvvdUfKPHNkJUDq28efB14XLly4Hpr339U51kPc+wsvOHU0Zn2lbyu1ypqyv749BjqVBDuHMLsfTaklPtKDa1vdSz44dcsRNtFqOacScjXC2sO/MND46AHx5ln2bzcOXja72vhX6l+9sNL6YzGZBqfNOWya7MjxQ2tVM2MN0Ti+U6YbzqltMeNuCx6xKtutR0HLdH70+MuafgtzS1XUPAGfArgHLnwDoDT91sgjmkzj5yZpFaD72PsN10ibD+6RMnzg97jHKHcW7ON6H8vdFCHXipn6SJwvl82sn/3Y8ybSBsLIbTiqOojyuSI2Lx+06DtWDuhzyZORCh+xk7vxvRls15AfXRT0eEcTf+6dePtqg6yKI50ZFiBe7RdNxz23LQx53JVtdL0HtI5C9Kyety98tkl2SyLCo5VE/0zKdvM3tSv2b6VkH05+rjAe1BV0PezvMdL6QOud/K0KAE5cDyJiIeqdKkwxSxjzthc0odZMh3W3SBEAApK3ZgJMATkMS5xVlEZo7/rXGL0CFXsDjPoaTIKk3JuYQiQRZ5WyDnjah//KzKYjORaMj1qMhCyu7qWOlhr3jyRzNfj25nNRPDpsOfePIg+wotdGzDZn3pmc0BiFH186M0slWgrm8B7OPUPbO47EE8wBHW9z2LINN9oPpL//aSHBbEOXVVa5F+pMyvvNwEiTNMhpC3zQBEABpazbgJIAToc0Q2CpErVPjbJB5RevoFFZOgmiorE4CS29TWls8d5eKTqIc0dUbwygfOQvdOpgaH5kG0akov8+fL0dLrY9vI6eJoLKn+w6gEpceT1J1vrqkt4FU2MRC158IcvRWjsD7ibHXhRxR1ePZj7YGtgW9LMn4y5FOIY9MSznCy9Oi2XwLGzDnj8XGQthHSHvP80jOrpS/47/1SU8L0nyWQk+nv+yB9eesy9R7bdH724JJBnGvdFhzhVcdcg8nwSTDgWSs9F93GOR3skx7zdC50gRAAKSt2RjIf8RNNQaDgfxl/gkAcNHItdfFOl65l/f6ho6wFBmcFftDqopXHOIkpduJxQq2K5qNincr9ttRHmP9ehBg7wAA4MTV18eLywAAcC9gh7tlL1M7us1DvmsOAACA+wacBAAAuG947Me/5VuDXtyWwwAAAPoCJwEAAO4F2n7uo0G2vedsuaTVapWHJS1nMxoPBjRiW2XGn2O5DgAA3DfgJAAAwD1hcpvSImZriDZ3dDef03Q6zcOc5nd3bA/6KH93If8IAADg3gAnAYD7xuOHGBW+twzp5nZNuzQRzkJMUWR46UB8F0UxLYRzkO7W9pebLwHYOwAAdAK7GwEAAAAAAHDPwO5GAAAAAAAAgFbASQAAAAAAAAAowEkAAAAAAAAAKAw+fvxoXIz04MGD/AoAAAAAAABwbQg/IL+qgxeXAQAAAAAAuGfgxWUAAAAAAABAK+AkAAAAAAAAABTgJAAAAAAAAAAU4CQAAAAAAAAAFOAkAAAAAAAAABTgJAAAAAAAAAAU4CQAAAAAAAAAFOAkAAAAAAAAABTgJAAAAAAAAAAU4CQAAAAAAAAAFOAkAAAAAAAAABTgJAAA2rFa0ngwoIEI4+Uq//Ies630MZhBHyXXqBfkNQDgHgEnAZw129WKViJst/kX4Ax4T5v8avM+vwB73n0gmKqBa9QL8hoEBu0dODfgJICzZbsc02g6pakIo9GMMG537WxptZzReDzej9QWQXwez5a08m04RQtrjGcg4hnPaOkdEQAAHAe0d+AcgZMAzpb0fTFeLXlHH9C3u1q2K9GpH4xoOr+jzYbnu0B83tzNaTqSy5tsRrCl5Uw4BqOGeEjEs7mj+XQkHI8lRoEBAGcD2jtwjsBJAGfL5GlMUX5N0TN6MsyvwXUhHITRVHTq84+SKI4pliEqLSBjMx81Ogrb5XOa37FYxG+zOAzxiIhohDXlAAADclS/mIGcHWnmEe0dOEfgJIDzZXJL692OdjKsbwh15jWyoplwEAqiOKFU5Pf69pZuZVivRf6ntGB9/M38ZfNUvHQMkjSLYyd+m8VRxJMmSjx094KsExMAgHvPuw/5xaFBewfOEDgJAICTsV2+oNJFiBb06nZiaByHdLNOKM4/id49vTD07oc3whGQjsFkaG5ghxO6ebWoRutoQ+/T/BIAAAAACnASAAAnYktvX1fLg+LPbaNnE/qMTQNsXr/t9k7B8Ak9Y7MJ77DwFwAAADACJ+EiWdGs3LHFsQvCalaurXTt683XYSrrvtne4NX3+Q4y+fdZGI+z9Zu1btdWpFfZacZzt5pWe5KL566W2nPyZx1iRxuWtippMg1yVx3t+S5ZTfrNdMbiETI0xxFW9m2eXzxvD6PDt1T5CDE9neSXDQyfPKtmATbvqdskQEr8/cDHD489qR8yr4pdnHg8zcFUhExpOewOUB3LSIGwzWXTzlVtdsCSyLhmUu8946mhlt3amvYWdTI/k8R4b8h6qCu99RigTNjaqFq6VuIvBli+jOZVJSHfg6p+v4/DMJG510Mf23S1dyFkNNJQjwg5ZktHPL3bLnD27Bqw/AmcnHS3iCjLIxniJP/aQLqIyvtER2zXfKslznSxE52z7PtokSqfjSFaiNiyH+6SmD9fD5E17cpzyjjrpElsT08Rongnkx8ElrZMhjTZxUx/9SBlbXi4rl8hT/335nwOK7srv0T6RCLkM8vvrBnooHU8QsfF/UKfnfJS0a2tPLTgFHbqKoOGoKpYLe/GYJHFC10vfcqIzHtXevOQlSEHar1oDtLWazjzWkun6Z42du+6l6Un+3MvHbensx5zgpUJpgevNspUfyh1gy3ovw1kmy7bCiGjhp/+Le20nqYGHbrMHJwOmT824CRcKErl3FyCax2B5sIqKrryPq3zxCuCSG0UojjexSLoFU20SNRni9/J+2Lt99aOmqvSlBgqpUg0KNmzZLpqlXfHzqUOS1u80Crr4vk1WRue3ahfrjO/Rq2P7Elcv7+MS/mehR61v58Nc/ydYxNpouaTT2fSi6PbKS+rIsgOlChvSSLKnHDyVFtcZN/LwKNT81rks7Dh7D7xf9Xh6VlWuF60UMruWUbUzqiQMV7sFrlcyULGw+Ow20a9YyvjK9LDvzfEY81rrb71sQWXEbvuDVkPtaSXHiUhy0RjHcptrfouC4b8K8qKLEfl74WtFd/vg/arULbpqkeCyMjQ9C/jKOoR73Q3psnRdoGzQeaXDTgJlwqvUJo62so9+9DYMbI1RoZ4jBVsrZO5D7WRKy2+xjTx+xyVZhZEuo0x6ffZKk5fGnRSG6STI3vaPU45ZGiSpSC07Np9pjwxjjoZWw4/uL34ddg9nQShc96oL0SDp3Y4ZKfY53mecN0dwU6dzpUSj6mBtgwI5EiHKpadhj5q0uWRoWMZyWSW6bGMgjv1ItHSZLQ7kZ7CzmrR8N8r6fR0ECSujj/HdW9AHbcipB5lEDcY06Pf15RuTz0os6AiNKmf25KrbjqIbZrkDCmjEldzJ15Jt2+amvISnCUyz2zASbhYeKPUUMi1yiILDZUs77DVKhW9ImiqBGoVhuiMeVTCXStNxSlpkKtES1vTI73x1YlEudeQV3pcLlkEoWVX4rMpxyB3V9o7CT6/0TprStiP8lna8m5wnRzcTrl8zbNwvHzV4uDP6JF/Tgy20ii7cm/XkUe38+Nt54JUzq7k1yUNed0qjw/pJBxcx3v66jFsmRC00AN/dlO9w8uPb91kx22bigwmnQSUkf/dkX32e/U0ufISnB0y32zgxeWLZUhPym1aNvT6bf3NoNWbYnNJeZhUfrl5TfVbV1Te6nqBNFpQatymUqDtHBMncjvK/IOG8hLquw8tXrIq4GmOaPHKsa/08IY+F7V0QdBdbWw6kSh6MedVRUyJc4/s0LLz+EQKbAYg4lqLVuN8GdLDx/llDXZy8/hAL3HWCJ1X7MXr6BGN8kudIVNCLY7hQyr/evdGpPAIBC0jXdHy4jP7m/LDmxtyvEufsZoNqDzqQ8p5qj3uj6bjvnoMXSY0HHqQh5YVbC51D+ReMnL9uzeMGD2qGnW77n3aLnBpwEm4YHhHu74lJKsI4qf0mc2h2H6gd/mlvNenYTRj66AFhqdZdHl8NqnhlV1NX9sVrVa24GiYrKh6sTZMlo5fSXDZeXzuRsPKQfXox+Q2P5CIhVQepFZ6ykIHG+ksNO9SYk57EVrIEDqvgjChqg9xR9PBflcyJ+dSRjK2tN1utedzXRvgeRHoRNt0OT4PB8ELi47b5G1fPZ66TIwele2m6PUeoHx1sM3Q2GRU8o/og5LOeuAlsXfbBS4P0YAasfwJnA2WJUdsGjCbIuTTgtqcoXVpgsQ1Dcrwnsb0idN2D5+G953itPyGp9sctCniFjqRWJdXtYwrtOy9nq/J0kaP/F6/KX11KZHVvprgsspgkDeoLYTOK59lCwJnmZbx1JZlyeVYyS5tSORJy0hGmq23rr/QagoG3XTJCx3dfljwtkdL+anhujeQjlvlbV89dvm96zdt9OBxL9eTb93UyzYlrnSFkpHrsm3QbbBNmsBZIvPOBmYSLho+MqTOEGzfvhbfSCJ6JN17PtWsLDHgB1r1HEUGl0n6PreV46KMDjpHjgOhL5fazOnlUdbbhEKdBTCdPC33Ln9e7vOel/8aE7pdp5QIT4HlAm3upjSSy7EOtad+Z7a0HI9oNL2jTQhjffyw/4h/tKBEeK0Fd9OGmalrJoQeL57AtnnGRObKBFwxcBIunKa1h2mxcLmcDubvMNzRm6JjxA+06rXU6LIxLVFRw+316oZPTffksHrkB6E1dX49mDwV7nCFvs723G1hcpuU6c8OepIHTi33SwOyQ61G89Lpixav6KaxFzcUca1pvUspTRbVe0uC/bsbaqf3lHpZzUZUnW8VUbxIKE3151d6cRJomcno5hVVfsKG5s+XQeI9Np3z9iDLdS6L4LZ5TOQSOSWd9rBurkzAlQIn4dLhHZ5yhqB6HyF69qQc6eHvMNwVXgIbRba+sHrOeJ6+u/3AVoUeeQSsdNoEQUdjQsve+STj9vCXa71eoO2wlvmsCJRXq9kL4eYzNnc0n09pOp3S/G5TOQhxQq+8GvUhDSc3dLsWHYFUdGZ4p/eI0yyNZWS7pBelwBEt0jXd3kxoeBb5P6SbNesAbuY0Mp2WeyYcrB7qygXU3VbO2jYb4INCR6zvwWUCJ+HiUZcfZH3/1ZuyE/GY96T4rib5CFC1A1KPkdlToIwGvyPXhheS0zWQW1LbuJ4tSGjZuV14xheElnJUS+gEfWa9FGcjQH7YCJ1XWadk//dIjlhqMwCyHEdRTEma0tq2000TwwndvlpUnYhj7X5kKyN8OVyfF46VzpFpl7euCJ2lXGdTGvuuOzrqSHygeqivHi+q7nYQyjaPyanqe3CRwEm4AviSIzlDUI266O8YMIciq9zZDkiXUsGVjKha0u4x4rmaVbuQiCbuWUhhN3N6bhs9XL1k09Eh3vsILTt3NB3xiU7quIqsJ23kWNHLSom9Zr0UZ0Po47B9jsB5VXZK5N+EE1DMAJRLAta0Xt/SpM9QptKJCMQxyojm/NXQtgB15cV21eK9jOENvWLvJ2zmz5vfT/DtZLcta8eqh3rr8Yzq7mPhss2j0qK+B0A0LEYsfwJnB9vxRB7PXuywYNoNg+1swI9Rt+7g0GIHA75LhnXjDp84XfdouzRkO7Pkf+LI02PLeGSwJswTnrYiiDTWTzr1eHYL/ZaEll2Lr3ZKtiCVJxeze7LQV5e6HAuDHOzk1iyYdJTp0L47j7hpl/DdXWTom37JMe2Ux9UQj4ts5xZRTzQeKsef4WuPJkKVEeXv5kPA6qeBN+wgU7M3Y2S7Rby3k9rfHXmt7hLUkAbxK5c91+URwWQPoXTclr561H/fYMve9ZcjXxR87uXps8Wn6LWnbbrSFVJGn/xTEHWnqcJokyZwlsi8swEn4UowbWFnLvh8C8UiOE7fbFERHNVJEBjllo5SvA/l74sQqiLjadNC+fzadngdG4cGwspuOKlYOJH7uETnm3/P4+7b2RDU5ZCd/UKHWqe+yVYN+cF1UY9HBNlRzn/eiyPbqdFZK4KQUzr/WYgXu4XR2WO6kGkQjlmSyLCo6alX9jK98AGJ/eciX6rv9sGUJ7pt7mXL0ryQaeZ/K4JnBz0L3N7Uv9Xkd+a12wGQKHmQhSoNSt7KfCyuTZlhsPsitK6HWtFTj4Kg9ZdHGSzxuVfXq8iHvVwy33gdFNA2XekKLGOSO3BVkDLmaS/qA6XuN6S7TZrAWSLzzgachGtBGxlQKzKVWuUcoMIp4HFbOxg+cXo+t17ZmUPTaFUn9LTVRou0IBq/RkesR0UbVnZTw6+GvePJHE1rJvuS+slh06FvHHmQDXkbPVs5sp1KWzP9rjEIvSm5xNNrCe7RRQfsOdJMnGXEUmdlNueyTfGQaqbI1hF227kMxnzwyWtdvw1lxGUP++c7ypqenj71UGt66DEnWP3lky8FnvfWHbki6HYayDZd6TqqjIbQN03gLJF5ZwNOwtWgzRDYCqzWyXB2BnhFYGqoGJWTICpS260pS29TWls8V64xSeQIq15Zy5E4OToSuvYyVY4yDaLRK7/Pny9Haq2PbyOniaCymw4F0uNhy3+6pLeBNF+eoOhPBDm6KEfE/cTY60KO+Onx7EcDD2wLh7ZTvezK35Qjf0J/UvZyxJPHr5exIh36fbm9htAR00uplq5lJMOkOxGXdILyBFedHpuTsEcuZanZifxsywffvFY66zJ9+fcaRRrK54ugl7VWTkL2XR8dt6eTHjl9y4SkVRlU77VFb64LTb8JYJsuGQ4kY6V/rS4QQX4n60zTjGRGmzSBs0TmnY2B/EfcVGMwGMhf5p8AAArypcJiP3q51/T65ny25QNXyv7QpuLl0zhJ6XZisbrtimajab7T2X57RmxzfmWgHgIA9MDV18fuRgAAcBGww+REh/Azm4MgGfJdZAAAAIB2wEkAAIBLw2N/+i3f8vLitjgGAABwauAkAADARaDtbz4a0GA8o9lySavVKg9LWs5mNB4MaMT22I8/xzIUAAAA7YCTAAAAF8LkNqVFzNYQbe7obj6n6XSahznN7+72a9QzovzdhfwjAAAA4AmcBAD68vghRmnBkRjSze2admkinIWYosjw0oH4LopiWgjnIN2t7S83g+sB9RAAIDDY3QgAAAAAAIB7BnY3AgAAAAAAALQCTgIAAAAAAABAAU4CAAAAAAAAQGHw8eNH42KkBw8e5FcAAAAAAACAa0P4AflVHby4DAAAAAAAwD0DLy4DAAAAAAAAWgEnAQAAAAAAAKAAJwEAAAAAAACgACcBAAAAAAAAoAAnAQAAAAAAAKAAJwEAAAAAAACgACcBAAAAAAAAoAAnAQAAAAAAAKAAJwEAAAAAAACgACcBAAAAAAAAoAAnAQAAAAAAAKAAJwGAa2S1pPFgQAMRxstV/iUAV8S2svHB7Eps/BplAgBcLHASQG+2qxWtRNhu8y/AGfCeNvnV5n1+AcC18u4DXV31c40ygZOCthq0BU4C6MV2OabRdEpTEUajGWHs69rZ0mo5o/F4vB/tLIL4PJ4taeXb+IhWyhjPQMQzntHSOyIAAAAu0FaDLsBJAL1I3xfj1ZJ39AF9u6tluxKd+sGIpvM72mx4vgvE583dnKYjubzJZgRbWs6EYzBqiIdEPJs7mk9HwvFYYiQVAAACgLYadAFOAujF5GlMUX5N0TN6MsyvwXUhHITRVHTq84+SKI4pliEqLSBjMx81Ogrb5XOa37FYxG+zOAzxiIhohHXZAIArQ47qF7OnsyPNmqKtBl2AkwD6Mbml9W5HOxnWN4R65xpZ0Uw4CAVRnFAq8nt9e0u3MqzXIv9TWrA+/mb+snk6WzoGSZrFsRO/zeIo4kkTJR66e0HWiQkAALhg3n3ILw4N2mrQATgJAAAr2+ULKl2EaEGvbieGBmZIN+uE4vyT6N3TC0PvfngjHAHpGEyG5kZqOKGbV4tqxIs29D7NLwEAAABwNOAkAAAsbOnt62p5UPy5bQRqQp+xaYDN67fd3ikYPqFnbDbhHRbPAgAAAEcHTsLBWNGs3LHFsZPAalauT3Ttjc3XMirrvtn+2tX3+Q4y+fdZGI+zNZC1btdWpFfZacZzt5pW+3qL566W2nPyZx1iRxuWtippMg1yVx3t+S5ZTfrNdMbiETI0xxFW9m2eXzxvD6PDt1T5CDE9neSXDQyfPKtmATbvqdskQEr8HbvHDwNMjJ+qfCgEsAGbHDWbXtXlMGL6fXNoLuZHLt9GOpbvApHPy6Zdt9rmt4xrJmXvGU8Ntd6prWlv0Z6IjK/s33RvyDq0K731eCbljuXLaF5VcPIdrur3+zjKR3D62iaTwZXX4eoWSUP9IuSYLR3xmNKU1cU8Hlu7C3qza8DyJ+BFultElOlRhjjJvzaQLqLyPtER2zXfaokzXexE5yz7PlqkymdjiBYituyHuyTmz9dDZE278pwyzjppEtvTU4Qo3snkB4GlLZMhTXYx0189SFkbHq7rV8hT/705n8PK7sovkT6RCPnM8jtrBjpoHY/QcXG/0GenvFR0aysPLThV+cgJZgNt5XDlgfP39XB4G/eEp13mV5/yLe3W+tsqZHp3oNbp5iDLaQ1dpvzrCi2dpnvalFnXvSw92Z976bg9nfWYc1bljuvaGvTfBrJNl22FkFHDT/+WOlRPU4MOXWYOmpH6swEn4YAoFVxzKVA6/jI0G7yoLMr7tM4TL0yRWrFGcbyLRdALa7RI1GeL38n7Yu331o6aq+KRGAp2JCrl7FkyXbUKsGPnUoelLV5oFV7x/JqsDc9u1C/XmV/D0Ef2JK7fX8alfM9CjxrUz4Y5/s6xiTRR88mnQ+bFqcqHJKQN2OQobbr6LgtN5VKpT+R9oqMkZE4SIbdwjBR9iDjk9zLU4jqD8q2HShd6XpmfrXZGhezxYrfI5U0WdZ3a7LresZXxFenh3xvi4TLV8k1rK3zqW1cBdN3L0tO7Dm1JLz1Kzq7cpWUZkuWr/L2wteL7fdB+Fco2rbYlCCIjQ9O/jKOoX7zT3ZgmR7sLvJH6tAEn4ZDwQtnUkVDu2YfGjpGtQjfEY6ykap3MfaiN/mjxNaaJ3+eoeLIg0m2MSb/PVvn40qCT2kCXHB3T7nHKIUOTLAWhZdfuM+WJceTGWPv6we3Fr8Pu6SQInfOGcSEaDbXRFo1AyJq/wRbUJxy4fMgQ2AaKe2vJ0xpoUz44HUDlWQ0NcWj52uCpC5/ynelCdmJqP65w6kuipcloFyI9RRmpRcN/r6TT00GQ2NoJHde9AXXcipB6lEHcYEyPfl9Tuj314FPuJNyWXPXqQWzTJGdIGZW4mjvxSrp909SUl6ATUqc24CQcFF6xNxQUrcBloaGi4h2YWsHUC1NTQaoVOtEZ86jIulY8SqerQa4SLW1Nj/TGVycS5V5DXulxuWQRhJZdic+mHIPcXeHP9HMSfH6jdXiUsB8ps7SH3fC1Bf2+nuUjuP37yiGw5wPPg+aZEC6jKT3B5WtDC12o93YdebTM5OYo+nAImC6EnefXJTydTJ+t9HxIJ+HgOt7TV4/B7bKFHvizm+pMXq5861U7bttUZDDpJKCM/O+O7LPfq6fJlZegNVKvNvDi8kEZ0pNym5YNvX5bf7tm9abYXFIeJpVfbl5T/dYVlbe6XiCNFpQat6kUaDvHxIncjjL/oKG8hPruQ4sXlQp4miNavHLszTy8oc9FTVcQdFcbm04kil7MeVURU+LcZzq07Dw+kQKbAYi41qLmPV+G9PBxflmDndw8PtCLkEcrHwe2f4dNy8OTCja1fWTZy+HRIxrllzpDllF2m7ym8t0VTR+f2d/yH97ckP2OPavZgMpjSqScp9rj/mg67qvHcy53F0IvGbn+3ZtdjB5VFa5d9z7tLggNnIQDwzsS9S0hWWGKn9JnZQ1rqGC3H+hdfinv9WlczNg6aIHhaabH5LNJDa8wavrarmi1sgVH5W5F1Yu1crd0qkqCy87jc1e8Vg6qRz8mt/mhPiyk8iC10lMWOthIZ6F5pw9z2ovQVYaA5SO0DbRl9Kise0Tr2y8uE9davjO2tN1utedzeQ1wfQQ60TZdjs/DQfDCouM2edtXj9de7rrYZmhsMir5R/RBSWc98JLYu90FwYGTcGj46Io+Q8AKkxwZVhwKrbBs374WrsMe6yjyOZG+L9PsW8D5yKXO6uWUplNbsJzy6wFvKHoTWHaFnpXlYfW4pQ+stWqzfelQHqR2K09dVg9Tmz9f1hraQ9tCEA5pAyGxbFW7ZZlZy8urK998a88RjUYj7fnzSl4TXB8hkE4y2yrTfkbJedCk41Z521ePl1LuWtHTNo8J1//mjuZKOg2B2Tg4P+AkHBw+uqLOEFQd/4geyZqMOxR3b1iDyA+06jmKDC6T0B0QT5QRNufoayD05VKis/Ty5D3+a2NC1YoB8+nYco/y52UDntdRV8uWlmPR+Zre0SZEQXv8sH+HPlpQsqjK3920YVbtmgmhx4snsG2eMdF1VzIXCZyEI9C0fi8tFgWXU6r8HYY7elN0jPiBVr2WGl02piUqari9Xt3w6d2eHFaP/CC0Hh3LyVPhDlfoa1XvtS0EYnKblDrODnSSB0st90sAssOrRtXoZLR4RTcH7q2dMk9XsxFVA5oRxYuE0lR/fqUvJ4GWmYxuXlHlJ5hn1S6Bznl7kOU6l0Vw2zwmcomckk57WB+6kgGtgZNwDHiHp5whqN5HiJ49KUdL+JKju8JLYKPIF7PUSMfz9F2+vOHYo0il0yYIOqIRWvbOJxm3R5mGV2a3GuiwHvhecIb2v5q9oPL9QolcGjDfLwGY320qByFO6JWr8b7k8r1d0otSEREt0jXd3kxoeBa2O6SbNesAbuY0Mp2WeyYcrA7tygXYpZWzts0G+IDWEdsqcBjgJBwFdWo/6/uv3pQNtLLWd/hQdK1y8lGUagekC5vyV0aD35HPZiana2S6r6U3Elp2bhee8QWhpRz83Zles16KsxEgP07BOdt/1vnYPyuSI5PJotpdLSOiKIopSVNaN+1yci3lW1nD3uOFY6VzZNqhrisTuuXv6dxNaey77uioI/GB6tC+erwou3QQyjaPyanaKnAQ4CQcCb7kSM4QVCMX+jsGzKHIKki2A9KlVBIlI6qWtG9o7lpYvppVO3mIZuJZSGE3c3puG4FbvWRTuiHe+wgtO3c0HfGJDuC4iqwnbeRY0Uv2ElqfWS/F2RD6OKd2258zsn+dsvMhnyOcgMkN3a751P+a1utbmliHLO9Z+dYc1xraFqAufWxXLbb4Hd7QK/Z+wmb+vPn9BN9Odtt64lh1aG89nnG5OxQu2zwqLdoqcPbASTgWfHTj3Rt6WbxkYBhtrRyKDb1+Xi0J4MuSLoMh3fANqOUImGhkTG2WrOiVBiv+PPga6I14/sC0977eWAZ57yO87NzRlPHNDD2M7XKmrCXvj0GOpUEO4cwux9Nq+Uq0oNr25lLPg/FeDyZFZGxptRzTiDkbh7CF43Be9m9m34g3ZoeVKynfHp3qbGcZZ7kylRVjZNk7H6PpnF60GCYf3qypep9f5NtoZl7+p3eyDe8x+MlT5zh1aF89nn+548s4rVuuBrPN46K3Ve6ZL7mlq+secBJ2DVj+BDrCTxYsgvm0Re2I+yw4TrB0nabIsJ5wyPGJ0+Meo9xRvIvjfSh/X4RQpyrqpzWyUD6/dvJvx9MqGwgru+Gk4ijK44rUuHjcriMvPajLIU9GLnTITh7O/2a0VUN+cF3U4xFB/L1/6gUt8i9o+RAEtYE2dui4N10Ynl0EkRdREeLFbmE5AvscyrdMJ39Gu/Ktl6u9zEmS7JLFwhCHDE12aTpNnJcV9W/WE2aNetLib9Clchp4Fqo0KPkh87e4Nhk7T48W2um4LT31KDjXcpeh61Xkw14umW+8/gxom650BZYxEW1SlSYZpIx52rMg0q+0W4Z0t0kT6ITUrQ04CceEH4GfheaOf62CC1BoC4J2gjyfW68wzCESCbLK2QY9bUL/5WdTEA1IoyPWo7IKK7up8VTD3vFkjqY1k31J/eSw6dA3jjzIxrCNnq2cqnzkBLOBNnbouFeWB/5sZxB526SOU5dvmU/O8m2pb7Py4ipX4iFJ2fm2dYTdZVQGoy588pffI4MU3oArT/bPd9QTenr61KGt6aHHnHMsdwV1R64Iup0Gsk1Xuo4qoyH0TRPohNStDSw3OibKC1UCyzsGynSdoNVSI+/dGSJ6lF+Z4S8geWB57iQ7JCulZBFTJEq9gvhCdAgpSXfNL0mGYHJLa5kGUeMqSRDPz7aVW9/6TTW33P0irOxDulmnJBprLS4WTy5EtS43BMNMjuJU5LoYMS0SkS6rDvdxiJo/00UsZc//UiLzotTHgQ6POkH5OIj9t7FDca/Capbtu16QPT9JyrCQ+RPv86hkc0fTsXkLznMo30NX+d6tLbY5oVtRrurpF3GxF7j9Xo2RZXSXvwxeT4u3LpryNz9HpIxX7jpmyJSsvOZp4PTKi1B1qBf99Xh25Y4hl4+Z6/HPtX5BSNvMcckQUMZK/3oGyCzY1/ey7di5ThNvkyYQjIH0FPJrhcFgIN2L/BMAF4hcJ1us1ZT7NbsqIQDuBdvscKbitY9YNNC3E0vJ2K5oNireN9lvwxiuIwjOGtShAFw1rr4+ZhIAAOBewQ68y14wd3T7hny3GAAAAPcFOAkAAHBf8diHfsu3try4bZgBAAB0BU4CAADcK7R9zEcDGoxnNFsuabVa5WFJy9mMxoOB8u5C/DmWmwAAwH0BTgIAANwzJrdp9gJ6yeaO7uZzmk6neZjT/O6O7b0e5e8u5B8BAABcPXASwP0AOyMAwBjSTbbzi9ytyrzziNxKpdy1are2v9wMrh/UoQDcO7C7EQAAAAAAAPcM7G4EAAAAAAAAaAWcBAAAAAAAAIACnAQAAAAAAACAwuDjx4/GxUgPHjzIrwAAAAAAAADXhvAD8qs6eHEZAAAAAACAewZeXAYAAAAAAAC0Ak4CAAAAAAAAQAFOAgAAAAAAAEABTgIAAAAAAABAAU4CAAAAAAAAQAFOAgAAAAAAAEABTgIAAAAAAABAAU4CAAAAAAAAQAFOAgAAAAAAAEABTgIAAAAAAABAAU4CAAAAAAAAQAFOAgDgeKyWNB4MaCDCeLnKvwQAAADAuQEnAVwt29WKViJst/kX4Ax4T5v8avM+vwDgDEH9AboC2wHXApwEcJVsl2MaTac0FWE0mhHGrK+dLa2WMxqPx9ksRRnE5/FsSSvfxlq06sZ4BiKe8YyW3hGBSwb1B+gKbAdcE3ASwFWSvi/GqyXv6AP6dlfLdiU69YMRTed3tNnwfBeIz5u7OU1HcnmTzQi2tJwJx2DUEA+JeDZ3NJ+OhOOxFHeDawb1B+gKbAdcE3ASwFUyeRpTlF9T9IyeDPNrcF0IB2E0FZ36/KMkimOKZYhKC8jYzEeNjsJ2+ZzmdywW8dssDkM8IiIazcKND8qRx2LGYnYBMxWXlt6CNulG/XEdnMJWYTvgmoCTAK6TyS2tdzvaybC+IdTT18iKZsJBKIjihFKR3+vbW7qVYb0W+Z/SgvXxN/OXzdP/0jFI0iyOnfhtFkcRT5oo8dDdC7JOTHTk3Yf84kK4tPQWONON+uPqOJqtwnbAFQEnAQBwkWyXL6h0EaIFvbqdGBrkId2sE4rzT6J3Ty8MvfvhjXAEpGMwGZob9eGEbl4tqhFC2tD7NL8EAAAArhA4CQCAC2RLb19Xy4Piz20jdhP6jE0DbF6/7fZOwfAJPWOzCe+w2BgAAMAVAyfh3rGiWb5GczBw7LywmpXrOQeONdh87aey7nvL98Uvvs93kMm/z8J4nK0ZrXW7tiK9yk4znrvVsOe60i7Ts10ttefkzzrEjjYsbVXSZBrkrjra812ymvSb6YzFI2RojiOs7Ns8v3jeHkaHb6nyEWJ6OskvGxg+eVbNAmzeU7dJgJT4O4mPH/ZYSMDK1mheRSrfmyi+34exZVlTsRMTv18EWZaWq3pZMmDKe2N+9U2vsItl065RbXafksi4ZtI+PeLpmu5j1x+2erImp1/etqaNXo2ciR5Obasu2zlYXveoD0xpyupyHo+tHQFXy64By5/ARZPuFhFl+StDnORfG0gXUXmf6Ijtmm+1xJkudqJzln0fLVLlszFECxFb9sNdEvPn6yGypl15ThlnnTSJ7ekpQhTvZPKDwNKWyZAmu5jprx6krA0P1/Ur5Kn/3pzPYWV35ZdIn0iEfGb5nTUDHbSOR+i4uF/os1NeKrq1lQcPGvKpHsxp9cs7WxlRy6wx8HLTOb0u265CZr8O1DrJHKSdlXRN97HrD70c8+cbQ0cbbqC1XjXOSg+ntlWX7Rwgr3vXB3qaGnToVdWCi0Lmqw04CfcQpUForjVqnYjmCoJ3wLTOE698IrUhiuJ4F4ugV27RIlGfLX4n74u131s7aq6KWmKoCCPRiGXPkumqNRiBGmaWtnihNRDF82uyNjy7Ub9cZ34NaR/Zk7h+fxmX8j0LPVocPxvm+DvHJtJEzSdrJ8EL4VQlSRYWzLmK4kX5/T4YnqPlncy3hSgz2f0LmefV32Qwyarml8grYYf73y/Y73med0uv2vmMsvsXxb2eaS2od2RlfLnNNsbTUc/Hrj9s9WRZJ1TfZcHivLShm14ZZ6eHE9uqy3ZC53WA+qA5TY52BFw8Mp9twEm4j/BKrKmjrdyzD40dI15J6TWQIR5jpV7rZO5DbQRdi68xTfw+R0WdBZFuY0z6fbbK2pcGndT6g3KGQbvHKYcMTbIUhJZdu8+UJ8aRLmNr5Qe3F78Ou6eTIHTOOxIL0ciqnRzZofZ5nj+8c+KURdF1c6OtdHhq+WZx6nOkUxTLzoYh/jbpze6V8dSMu0JJa1PGeNiYzLsij03RdNazT7kLXIaKe2vVn9Yh7FGE9vTV65nr4eS26mM7+X2dZFTi6lofCExpaspLcFXIvLYBJ+FewjtMDRWLVkFloaFi5x22WkWmVz5NFU+tkhKdMY+Kv2tFrTglDXKVaGlreqQ3vjqRKPca8kqPyyWLILTsSnw25Rjk7kp7J8HnN7YlOPuRRUv/oTNtOjJcBpf6Gu/l+dAhD9qk1w+30+JtY4JUzork15xW6eY6Okb9YSgbTXG67difvno9dz2cwlYVGUw6CSgj/7sj++z36mly5SW4GmR+28CLy/eSIT0pt2nZ0Ou39beRVm+KzSXlYVL55eY11W9dUXmr6wXSaEGpcZtKgbZzTJzI7SjzDxrKS6jvPrR4sauApzmixSvHXtbDG/pctAwFQXe1selEoujFnFcVMSXOfblDy87jEymwGYCIay1aqvNlSA8f55c12MnN45Yv2gajRVkTjB5VBUrJt+FDKsW8eyNiPXc0m/3MLvjw5oYcqunJgesPR50gD+sq2PTah7evXq9FDyekl4yB6oMaPu0IuC/ASbin8I52fUtIVvnET+kzm0Ox/UDv8kt5b/fG2dZBCwxPs+gu+WxSwyvYmr62K1qtbMHRGFpR9WJtDKNHNMovGwkuO4/P3VBZOage/Zjc5ocgsZDKg9RKT1noYCOdheadUcxpL0IPGbiuRXI+GOOvArcU1W4mVPU97mg62O8sdhy2tN1utbRyGzKgyH0GJ9iGLkNtGT0q627R2+teF/XV6znrIQgdbDU01rzm+denPtDwaUfA/UE0gkYsfwJXgWXJEZt6zKYl+VSkNk/Jp3ON052uqVeG99SpT5y2e/hSKt9pVctveLrNQZuWbqETCddxbUlAy7hCy97r+ZosbfTI7/VbRtDvxeUMLqsMBnlb24LAe0kE113bUBM4qb8cmS2pSnapQ53tl3Ck2frq+guspmBYwtHFZg20SvcR64+MNuXIcm8r++ur1zPWQ8HRbVXiSlcoGbku24a+7Qi4GmSe28BMwr2Fj1CrMwTbt6/FN5KIHskhBb7kRVmewA+06jmKDC6T9H1uK8dFGZE81lIDfbnUZk4vz3+tTkaUFWTOhG7XKSXCU2CapM3dlEZySVXbswsa2dJyPKLR9I42IQzl8UMsgzgE0KsgsK2eMfX6AAAzcBLuMU3rHdPixKhyCpq/w3BHb4qOET/QqtdSo8vGtERFDbfXqxs+Hd6Tw+qRH4SWO79dmDwV7nCFvrb3aLYg1zIb4zeH9Y2pCzgU6V3TepdSmiyqd48E+/cvbAe5+bGajag6zyqieJFQmurpSxSdWjnIspLrobP9Qa/hbfWYBKkPAKgDJ+E+wzs85QxB9T5C9OxJObrE32G4K7wENopsfWH1nPE8fXf7ga1EPfKoW+m0CYKOAIWWvfNJxu0Z8hc1fF6+7bB++uzgDllQXQ9pOLmh27XoQKSiE1Q9hOZ9pkq2S3rBX2xN13R7M6HhNfVPLqD+OAqXrodLtNWD1QcAVMBJuNeoLzBmff/VG3G15zHvSfEdUfJRp2oHpB4js6dAGQ1+R65NNiQH66g72ZLarvZstULLzu3CM74gtJSjWkIn6DPrpTgbAfKjDcfQ9XBCt68WVeejz+5HfClanxeOlc6QaYe1I3NR9YeFvnq9Fj1IQtnqMTlV3QvuFXAS7jl8yZGcIahGevR3DJhDkTUobAekS6lUS0ZULWn3GC1dzWjKRpmehRR2M6fnM8vzVy/ZFHiI9z5Cy84dTUd82yWNq8h60kaOFb2slNhr1ktxNoQ+jtvPaaHrPiidjyOgOV41tG2AXXJvV4feovaM6o8+9NbrleihDS5bPSpHqg/AvQZOwn2Hjwa9e0Mvi5cMDKOtlUOxodfPX5QzDnxZ0mUwpBu+YffdlMaio27qV8iGUenYxp9T6OWc8mXRgWnvfb1THeS9j/Cyc0dTxmfaTnO7nNF4NBeWEwqDHEuDHMKZXY6npa3Ktbu17eClngfjvR5MisjY0mo5phFzNkLZAl865doWUtf12PnSgNzCUb1nK+QYjGfNHWk2m0iG7RC90+sxUr0VHUe3XZjy2hgZLWcij6ZzemF4WBs92zmv+qM7ffV6/no4vq0elxD1AQBWdg1Y/gSuDNO2eebt4vhpk0VoPgo+o8XWajwd1i0qfeL0uMcodxTv4ngfyt8XIdTWcDxtWiifX9uCr+N2ew2Eld1wUnEU5XFFalw87k77kKrU5ZDbeBY6ZFvH5n8z2qohP7gu6vGIIP7eP/U5+vML3WXPrac5ETpV0iLuieVp0EmSh4X4zPWuplXZUlfKuWC/02Q1ZpF3enW7yE+tls9ayGfxvxWhSa+m07B5Xqt/65dugUe5ClqGPJ5X0uZeJ/31etZ64Pdk9x3BVl3pCixj3/ogo02awFUh89wGnAQga5m88ihCQ2dKUGsQAlRyBTzuYzgJknoFaw7Z/vH5b3qjp03uy82eVQuiwW3Kjz6Ve1jZTZ0NNewdT+ZoWjPZl9RPDpsOfePIg+w8tNGzD0rHXQnmsth8vyHodsFtxhJs+8r7p9d0HoMapH0lZXw258ttYzLY7NU73ceuP9qU4x5l3kx/vZ6zHo5uq650HVVGQ+ibJnBVyDy3AScBCLQZAlsloTkUrQ4lEhWsjcpJEJW31Ulg6W1Ka4vnytOjkoXoqOsNRJSPJoWuMU0VskyDaGjL7/Pny1Fe6+PbyGkiqOymg4j0eJKqQ9IlvQ2kwiYWuv5EkCOaC/FwPzH2upCjjHo8+xHIA9gCw6w7S/6XeVfvIMjvZHql7GYafit/J23OQ07/9JpsTNwr8ibJH1R1cmxOwp40n/HQy4qvvXql+9j1R6vnqff6RO9DX72esx6OaqsuGQ6V16X+O9QHbdIErgqZ5zYG8h9xU43BYCB/mX8CAARDroEv1rbK/a3XN3Q2y5QBAAAAcC9w9fXx4jIAAAAAAABAAU4CAAAAAAAAQAFOAgAAAAAAAEABTgIAAAAAAABAAU4CAKfk8UO8tAwAAACAswO7GwEAAAAAAHDPwO5GAAAAAAAAgFbASQAAAAAAAAAowEkAAAAAAAAAKAw+fvxoXIz04MGD/AoAAAAAAABwbQg/IL+q0/ji8j/8wz/Qr/3ar+WfAAAAAAAAANeCq6+P5UYAAAAAAAAABTgJAAAAAAAAAAU4CQAAAAAAAAAG0f8PCyTq74nQeHEAAAAASUVORK5CYII=;" vertex="1" parent="1">
          <mxGeometry x="-266" y="253" width="209.53" height="120" as="geometry" />
        </mxCell>
        <mxCell id="mCVYUDn0fca01j3yYNZI-14" value="Env config/ Storage keys/secrets" style="shape=internalStorage;whiteSpace=wrap;html=1;backgroundOutline=1;" vertex="1" parent="1">
          <mxGeometry x="-90" y="59" width="161" height="84" as="geometry" />
        </mxCell>
      </root>
    </mxGraphModel>
  </diagram>
</mxfile>
